<svg width="32" height="34" viewBox="0 0 32 34" fill="none" xmlns="http://www.w3.org/2000/svg">
<path d="M22.3666 33.1854L0.847656 11.4414V12.3864L16.6156 28.8384L22.3666 33.1854Z" fill="black"/>
<path d="M1.96558 11.1797C1.96558 11.1797 18.6245 28.0187 19.3175 28.5227C20.0105 29.0267 22.5036 29.2607 22.3596 29.5397C22.2156 29.8187 21.5586 30.1427 21.0546 30.1157C20.5506 30.0887 19.7496 29.7017 19.4616 29.5397C19.1736 29.3777 1.96558 11.1797 1.96558 11.1797Z" fill="#DC052D"/>
<path d="M28.9353 18.9154C28.5614 18.7151 28.4345 18.6548 27.7644 18.2204C26.6124 17.4734 26.2848 17.3095 25.7988 16.8505C24.9348 16.0405 24.2598 15.4105 24.0078 14.4115C23.6838 13.0885 23.7918 9.78549 23.7918 9.78549C23.7918 9.78549 23.7018 9.60548 23.6838 9.58749C23.1888 8.86749 20.6328 9.19148 20.6328 9.19148C18.9048 9.42548 18.0408 9.53349 17.9238 9.92949C17.6628 10.8295 20.5338 12.2965 21.4338 14.4385C21.5688 14.7625 21.6588 15.1135 21.5868 15.5185C21.5148 15.9685 21.2178 16.5805 19.3818 17.6875C18.4908 18.2275 17.5191 18.7993 16.6371 19.1953C15.3231 19.7983 13.2502 20.8346 12.4492 21.1946C13.4212 20.3126 15.1971 19.0304 15.7551 18.5894C15.7551 18.5894 16.7808 17.8495 17.9958 16.6795C18.5988 16.1035 18.9318 15.7435 18.9228 15.2665C18.9228 14.7715 18.5538 14.4025 18.3018 14.1685C16.8348 12.7465 15.4488 11.6935 15.4488 11.6935C13.0638 9.88449 12.9378 9.27249 12.9198 8.95748C12.8748 8.18349 13.3878 7.5805 13.4868 7.4635C13.4868 7.4635 14.2338 6.5905 17.8878 5.9785C17.8878 5.9785 17.9508 5.9695 17.9958 5.9605C18.0768 5.9425 18.0318 5.9605 18.0408 5.9605C18.1218 5.9425 18.3018 5.9155 18.3198 5.9155C19.8408 5.6995 21.6588 5.7805 21.6588 5.7805C25.0878 5.9155 25.6098 6.3835 25.8888 6.7345C25.9068 6.7615 25.9338 6.7975 25.9608 6.8335C26.6358 7.9495 26.3118 9.18248 26.0148 10.7035C25.6368 12.6385 25.4568 13.6015 25.6278 14.3305C25.8798 15.3655 26.4918 16.0585 27.5268 17.2375C28.7148 18.5965 29.0587 18.8254 28.9957 18.9154H28.9353Z" fill="black"/>
<path d="M27.021 7.97716C26.832 8.77817 26.787 10.3352 27.768 10.8392C28.605 11.2712 29.676 10.6592 30.198 10.1642C30.99 9.41717 31.494 8.04917 30.891 6.94217C30.549 6.31217 29.793 5.66417 28.947 5.74517C27.552 5.87117 27.066 7.81516 27.03 7.97716H27.021Z" fill="black"/>
<path d="M22.8104 13.9795C22.7114 13.9255 21.0554 12.0265 19.0304 9.68653C18.0674 8.57953 17.0144 7.3645 16.0154 6.2035C13.7024 3.5215 11.6324 1.1095 11.3804 0.8125C11.6594 1.1185 13.9544 3.6385 16.4924 6.2035C17.6804 7.4005 18.8414 8.65153 19.8764 9.70453C21.3974 11.2435 22.5674 12.6205 22.6574 12.7375C22.9364 13.0975 23.0534 14.1145 22.8104 13.9795Z" fill="#DC052D"/>
</svg>
