<svg width="22" height="22" viewBox="0 0 22 22" fill="none" xmlns="http://www.w3.org/2000/svg">
<path d="M10.9994 15.1429C11.2631 15.1353 11.4891 15.0374 11.6925 14.834L17.4255 8.97294C17.5912 8.79967 17.6816 8.59626 17.6816 8.34766C17.6816 7.84291 17.2899 7.45117 16.7852 7.45117C16.5441 7.45117 16.3181 7.54911 16.1448 7.72238L10.9994 12.9958L5.85407 7.72238C5.6808 7.54911 5.46233 7.45117 5.21373 7.45117C4.70898 7.45117 4.31724 7.84291 4.31724 8.34766C4.31724 8.58873 4.40765 8.79967 4.57338 8.97294L10.3139 14.834C10.5098 15.0449 10.7358 15.1429 10.9994 15.1429Z" fill="#EEEEEE"/>
</svg>
