<svg width="31" height="30" viewBox="0 0 31 30" fill="none" xmlns="http://www.w3.org/2000/svg">
<path d="M16.9798 20.2209C17.6998 22.2009 18.0598 23.8209 18.3298 24.8109C18.7798 26.7009 18.9598 28.3209 19.1398 29.5809C18.4198 27.4209 17.4298 24.9009 15.8998 22.2009C14.8198 20.3109 13.7398 18.6909 12.7498 17.3409C13.3598 16.5275 13.8368 15.3951 14.1898 14.4609C15.5398 16.7109 16.3498 18.6909 16.9798 20.2209Z" fill="black"/>
<path d="M14.4595 6.63001C14.6212 6.94447 14.6869 6.9928 14.7295 7.62001C14.8838 9.89008 14.6038 11.9377 14.0535 14.1442C13.7787 15.0286 13.2492 16.0596 12.0792 18.1296C11.7192 18.8496 9.50955 22.65 9.41955 22.83C8.78955 24 7.79955 25.98 6.35955 29.58C6.35955 29.58 6.71955 26.52 7.43955 23.19C7.79955 21.48 8.13507 20.3514 8.58507 19.1814C8.94507 18.2814 10.3055 15.1378 10.4855 14.5978C10.7555 13.709 11.183 12.3958 11.1565 10.9337C11.0693 9.75382 11.0164 9.14101 10.5283 8.5462C9.95793 7.98424 7.76436 8.1565 7.24407 8.15299C6.90189 8.14327 6.26754 8.15992 5.63955 8.07001C4.85821 7.97884 4.41395 7.83331 4.29904 7.39357C4.26196 7.25164 4.24233 7.04464 4.35806 6.86788C4.68818 6.36361 9.33783 5.15996 13.1095 5.82001C13.5408 5.90709 14.1895 6.09001 14.4595 6.63001Z" fill="black"/>
<path d="M14.5051 2.55478C14.5951 3.36478 14.5051 4.89478 13.5151 5.34478C12.6151 5.70478 11.6251 4.98478 11.1751 4.44478C10.4551 3.63478 10.0951 2.19478 10.8151 1.20478C11.1751 0.574782 11.9851 0.0347816 12.8851 0.214782C14.2351 0.394782 14.5051 2.37478 14.5051 2.55478Z" fill="black"/>
<path d="M24.5384 6.63086C23.1884 7.71086 21.7484 8.43086 20.8484 8.79086C19.6784 9.24086 18.8684 9.60086 17.6084 9.60086H17.5184C16.3484 9.60086 15.5384 9.42086 14.9984 9.15086C15.0101 8.4341 15.0183 8.05304 14.9084 7.26086C15.4484 7.44086 16.2584 7.62086 17.2484 7.71086H18.2384C19.4084 7.71086 20.5784 7.44086 22.0184 7.26086C23.0084 6.99086 23.9084 6.72086 24.5384 6.63086Z" fill="black"/>
<path d="M29.4872 6.17969L16.7072 6.98969C16.7072 6.98969 15.0872 6.89969 14.3672 7.16969C13.4672 7.52969 12.4772 8.15969 12.2072 7.97969C11.7572 7.61969 11.6672 6.35969 11.6672 6.35969L14.6372 6.17969H29.4872Z" fill="#DC052D"/>
<path d="M0.508545 29.9411C0.508545 29.9411 27.9585 29.6711 28.4085 29.5811C28.8585 29.4011 29.0385 29.4011 29.3985 29.2211C29.6685 29.1311 30.7485 28.9511 30.2985 29.3111C29.8485 29.7611 28.9485 29.9411 28.5885 29.9411C28.2285 29.9411 19.2285 29.9411 18.7785 29.8511C18.4185 29.9411 0.508545 29.9411 0.508545 29.9411Z" fill="#DC052D"/>
</svg>
