<svg width="25" height="24" viewBox="0 0 25 24" fill="none" xmlns="http://www.w3.org/2000/svg">
<path fill-rule="evenodd" clip-rule="evenodd" d="M11.6996 9.86891C12.1341 10.3276 12.8645 10.3276 13.2991 9.8689L18.4355 4.44708C18.7204 4.14638 19.1951 4.13355 19.4958 4.41843C19.7965 4.7033 19.8093 5.178 19.5244 5.4787L14.388 10.9005C13.3618 11.9837 11.6368 11.9837 10.6107 10.9005L5.47422 5.4787C5.18934 5.178 5.20217 4.7033 5.50287 4.41843C5.80357 4.13355 6.27827 4.14638 6.56315 4.44708L11.6996 9.86891Z" fill="#FF4C4C"/>
<path fill-rule="evenodd" clip-rule="evenodd" d="M11.6996 17.906C12.1341 18.3647 12.8645 18.3647 13.2991 17.906L18.4355 12.4842C18.7204 12.1835 19.1951 12.1707 19.4958 12.4555C19.7965 12.7404 19.8093 13.2151 19.5244 13.5158L14.388 18.9376C13.3618 20.0208 11.6368 20.0208 10.6107 18.9376L5.47422 13.5158C5.18934 13.2151 5.20217 12.7404 5.50287 12.4555C5.80357 12.1707 6.27827 12.1835 6.56315 12.4842L11.6996 17.906Z" fill="#BD9D9D"/>
</svg>
