<svg width="25" height="24" viewBox="0 0 25 24" fill="none" xmlns="http://www.w3.org/2000/svg">
<path fill-rule="evenodd" clip-rule="evenodd" d="M11.6996 14.1311C12.1341 13.6724 12.8645 13.6724 13.2991 14.1311L18.4355 19.5529C18.7204 19.8536 19.1951 19.8664 19.4958 19.5816C19.7965 19.2967 19.8093 18.822 19.5244 18.5213L14.388 13.0995C13.3618 12.0163 11.6368 12.0163 10.6107 13.0995L5.47422 18.5213C5.18934 18.822 5.20217 19.2967 5.50287 19.5816C5.80357 19.8664 6.27827 19.8536 6.56315 19.5529L11.6996 14.1311Z" fill="#FF4C4C"/>
<path fill-rule="evenodd" clip-rule="evenodd" d="M11.6996 6.09399C12.1341 5.63534 12.8645 5.63534 13.2991 6.09399L18.4355 11.5158C18.7204 11.8165 19.1951 11.8293 19.4958 11.5445C19.7965 11.2596 19.8093 10.7849 19.5244 10.4842L14.388 5.06237C13.3618 3.97921 11.6368 3.97921 10.6107 5.06237L5.47422 10.4842C5.18934 10.7849 5.20217 11.2596 5.50287 11.5445C5.80357 11.8293 6.27827 11.8165 6.56315 11.5158L11.6996 6.09399Z" fill="#BD9D9D"/>
</svg>
