<svg width="14" height="13" viewBox="0 0 14 13" fill="none" xmlns="http://www.w3.org/2000/svg">
<path fill-rule="evenodd" clip-rule="evenodd" d="M8.76102 7.65096C8.37881 7.28887 8.37881 6.68018 8.76102 6.31809L13.2792 2.03771C13.5298 1.80031 13.5405 1.40473 13.3031 1.15415C13.0657 0.903562 12.6701 0.892871 12.4195 1.13027L7.90134 5.41065C6.99871 6.26578 6.99871 7.70328 7.90134 8.5584L12.4195 12.8388C12.6701 13.0762 13.0657 13.0655 13.3031 12.8149C13.5405 12.5643 13.5298 12.1687 13.2792 11.9313L8.76102 7.65096Z" fill="#3D3D3F"/>
<path fill-rule="evenodd" clip-rule="evenodd" d="M2.06351 7.65096C1.6813 7.28887 1.6813 6.68018 2.06351 6.31809L6.5817 2.03771C6.83228 1.80031 6.84297 1.40473 6.60558 1.15415C6.36818 0.903562 5.9726 0.892871 5.72202 1.13027L1.20383 5.41065C0.301198 6.26578 0.301198 7.70328 1.20383 8.5584L5.72201 12.8388C5.9726 13.0762 6.36818 13.0655 6.60558 12.8149C6.84297 12.5643 6.83228 12.1687 6.5817 11.9313L2.06351 7.65096Z" fill="#B12B2C"/>
</svg>
