<svg width="14" height="13" viewBox="0 0 14 13" fill="none" xmlns="http://www.w3.org/2000/svg">
<path fill-rule="evenodd" clip-rule="evenodd" d="M5.23898 7.65096C5.62119 7.28887 5.62119 6.68018 5.23898 6.31809L0.720794 2.03771C0.470211 1.80031 0.45952 1.40473 0.696914 1.15415C0.934309 0.903562 1.32989 0.892871 1.58047 1.13027L6.09866 5.41065C7.00129 6.26578 7.00129 7.70328 6.09866 8.5584L1.58048 12.8388C1.32989 13.0762 0.934309 13.0655 0.696914 12.8149C0.45952 12.5643 0.470211 12.1687 0.720794 11.9313L5.23898 7.65096Z" fill="#3D3D3F"/>
<path fill-rule="evenodd" clip-rule="evenodd" d="M11.9365 7.65096C12.3187 7.28887 12.3187 6.68018 11.9365 6.31809L7.4183 2.03771C7.16772 1.80031 7.15703 1.40473 7.39442 1.15415C7.63182 0.903562 8.0274 0.892871 8.27798 1.13027L12.7962 5.41065C13.6988 6.26578 13.6988 7.70328 12.7962 8.5584L8.27799 12.8388C8.0274 13.0762 7.63182 13.0655 7.39442 12.8149C7.15703 12.5643 7.16772 12.1687 7.4183 11.9313L11.9365 7.65096Z" fill="#B12B2C"/>
</svg>
