<svg width="20" height="20" viewBox="0 0 20 20" fill="none" xmlns="http://www.w3.org/2000/svg">
<path fill-rule="evenodd" clip-rule="evenodd" d="M11.7608 10.651C11.3786 10.2889 11.3786 9.68018 11.7608 9.31809L16.279 5.03771C16.5295 4.80031 16.5402 4.40473 16.3028 4.15415C16.0654 3.90356 15.6699 3.89287 15.4193 4.13027L10.9011 8.41065C9.99846 9.26578 9.99846 10.7033 10.9011 11.5584L15.4193 15.8388C15.6699 16.0762 16.0654 16.0655 16.3028 15.8149C16.5402 15.5643 16.5295 15.1687 16.279 14.9313L11.7608 10.651Z" fill="#3D3D3F"/>
<path fill-rule="evenodd" clip-rule="evenodd" d="M5.06351 10.651C4.6813 10.2889 4.6813 9.68018 5.06351 9.31809L9.5817 5.03771C9.83228 4.80031 9.84297 4.40473 9.60558 4.15415C9.36818 3.90356 8.9726 3.89287 8.72202 4.13027L4.20383 8.41065C3.3012 9.26578 3.3012 10.7033 4.20383 11.5584L8.72201 15.8388C8.9726 16.0762 9.36818 16.0655 9.60558 15.8149C9.84297 15.5643 9.83228 15.1687 9.5817 14.9313L5.06351 10.651Z" fill="#B12B2C"/>
</svg>
