<svg width="20" height="20" viewBox="0 0 20 20" fill="none" xmlns="http://www.w3.org/2000/svg">
<path fill-rule="evenodd" clip-rule="evenodd" d="M8.23922 10.651C8.62143 10.2889 8.62143 9.68018 8.23922 9.31809L3.72104 5.03771C3.47046 4.80031 3.45976 4.40473 3.69716 4.15415C3.93455 3.90356 4.33014 3.89287 4.58072 4.13027L9.09891 8.41065C10.0015 9.26578 10.0015 10.7033 9.09891 11.5584L4.58072 15.8388C4.33014 16.0762 3.93455 16.0655 3.69716 15.8149C3.45976 15.5643 3.47046 15.1687 3.72104 14.9313L8.23922 10.651Z" fill="#3D3D3F"/>
<path fill-rule="evenodd" clip-rule="evenodd" d="M14.9365 10.651C15.3187 10.2889 15.3187 9.68018 14.9365 9.31809L10.4183 5.03771C10.1677 4.80031 10.157 4.40473 10.3944 4.15415C10.6318 3.90356 11.0274 3.89287 11.278 4.13027L15.7962 8.41065C16.6988 9.26578 16.6988 10.7033 15.7962 11.5584L11.278 15.8388C11.0274 16.0762 10.6318 16.0655 10.3944 15.8149C10.157 15.5643 10.1677 15.1687 10.4183 14.9313L14.9365 10.651Z" fill="#B12B2C"/>
</svg>
