<svg width="26" height="26" viewBox="0 0 26 26" fill="none" xmlns="http://www.w3.org/2000/svg">
<path d="M1.6242 0.199219H24.3922C25.1762 0.199219 25.8002 0.823219 25.8002 1.60722V24.3912C25.8002 25.1592 25.1762 25.7992 24.3922 25.7992H17.8642V15.8792H21.1922L21.6882 12.0232H17.8642V9.55922C17.8642 8.43922 18.1842 7.67122 19.7842 7.67122H21.8322V4.21522C21.4802 4.16722 20.2642 4.07122 18.8562 4.07122C15.8962 4.07122 13.8802 5.86322 13.8802 9.17522V12.0232H10.5362V15.8792H13.8802V25.7992H1.6242C1.24928 25.7992 0.889487 25.6514 0.62289 25.3878C0.356293 25.1242 0.204408 24.7661 0.200195 24.3912V1.60722C0.200195 0.823219 0.840195 0.199219 1.6242 0.199219Z" fill="#EEEEEE"/>
</svg>
