<svg width="28" height="28" viewBox="0 0 28 28" fill="none" xmlns="http://www.w3.org/2000/svg">
<path d="M18.9062 18.826C19.2482 20.824 18.9602 22.552 18.9602 22.552C18.9512 22.624 18.9152 22.822 18.8522 23.11C18.6452 24.046 18.2042 25.603 17.1332 27.781C17.4842 25.783 17.7986 23.6947 17.7716 22.5877C17.7875 20.7782 17.1598 19.6609 16.2559 18.124C15.7462 17.2035 15.254 16.8 14.8789 16.3889C15.873 15.1253 16.3789 14.053 16.5482 13.291C16.9172 13.831 18.4472 16.135 18.9152 18.835L18.9062 18.826Z" fill="black"/>
<path d="M15.9428 6.09128C15.9428 6.09128 16.2038 6.28028 16.4018 6.55028C17.2298 7.65728 16.9839 9.97649 16.8149 11.0505C16.486 12.6248 16.3508 13.7461 14.8765 15.9127C14.4545 16.5328 13.8636 17.1109 13.2193 17.7537C12.6311 18.3415 11.8658 18.9452 10.6778 19.5662C9.92179 19.9622 8.74594 20.4283 6.66694 20.5363C4.02992 20.6803 1.60578 19.7407 0.696777 19.2007C1.50678 19.3267 3.97276 19.488 5.43079 19.308C7.06051 19.0626 8.7121 18.558 10.0221 17.6C11.124 16.7673 12.4202 15.4696 13.2572 13.5076C14.1572 11.3926 13.8524 9.35378 13.2962 8.46611C11.2772 8.07767 7.44175 11.7048 5.73679 14.2993C6.20479 12.7063 7.14979 10.3843 9.09379 8.34128C9.31879 8.09828 10.5968 6.82928 12.4868 6.04628C12.7478 5.93828 13.7198 5.55128 14.7728 5.67728C15.2383 5.71472 15.6475 5.84702 15.9428 6.09128Z" fill="black"/>
<path d="M16.5452 6.01009C17.9222 5.79409 19.4523 5.68609 20.8383 5.68609C20.8383 5.68609 23.0433 5.65009 25.1763 6.16309C25.7523 6.29809 26.2293 6.45109 26.5623 6.55909C26.9043 6.69409 27.3183 6.86509 27.3093 6.89209C27.3003 6.91909 26.9943 6.82909 26.9403 6.82009C25.5723 6.44209 22.1403 6.74242 22.1403 6.74242C19.7373 7.05742 18.212 7.61371 17.2113 7.98109C17.1571 7.23499 16.8717 6.64108 16.5452 6.01009Z" fill="black"/>
<path d="M16.3125 2.52641C16.4205 3.33641 16.3215 4.90241 15.3045 5.30742C14.4315 5.65842 13.4235 4.94741 12.9465 4.40741C12.2265 3.58841 11.8575 2.18441 12.5685 1.13141C12.9645 0.537411 13.7745 -0.0385884 14.6205 0.123412C15.9975 0.375412 16.2945 2.36441 16.3125 2.52641Z" fill="black"/>
<path d="M9.53168 27.9081C10.819 27.9081 11.8627 26.8645 11.8627 25.5771C11.8627 24.2897 10.819 23.2461 9.53168 23.2461C8.24432 23.2461 7.20068 24.2897 7.20068 25.5771C7.20068 26.8645 8.24432 27.9081 9.53168 27.9081Z" fill="#DC052D"/>
</svg>
