<svg width="107" height="92" viewBox="0 0 107 92" fill="none" xmlns="http://www.w3.org/2000/svg">
<path d="M95.3327 39.0395C98.7507 44.1111 101.315 50.547 101.315 56.8769C101.315 66.028 98.3211 74.5512 92.8928 80.8785C86.7349 88.0509 77.7263 92 67.5208 92C56.1804 92 48.9417 87.7302 44.5644 83.5257H10.5055L20.511 44.8313H0L33.1187 0H61.498L60.2794 5.54174H107.003L95.3354 39.0395H95.3327Z" fill="#CB2D2D"/>
<path d="M104.59 6.98181H58.1472L59.3658 1.79883H34.2235L3.48535 43.0317H22.7264L12.7236 81.7233H44.7911C48.6793 85.6153 55.6938 90.2004 67.1693 90.2004C77.0965 90.2004 85.4917 86.5231 91.4523 79.5762C96.6618 73.5126 99.5314 65.321 99.5314 56.5178C99.5314 50.1987 96.932 44.2194 93.3626 39.2212L104.587 6.98181H104.59ZM98.8153 55.9361C98.818 56.1291 98.8234 56.3248 98.8234 56.5178C98.8234 65.1497 96.016 73.1756 90.92 79.106C85.0972 85.8925 76.8884 89.4828 67.1774 89.4828C55.8451 89.4828 48.9739 84.9304 45.2045 81.1091L45.0965 81.0058H13.6531L23.6559 42.3142H4.87149L34.5937 2.51635H58.4769L57.2583 7.69933H103.563L92.5629 39.3272L92.6763 39.4821C96.116 44.2411 98.6559 49.9161 98.8126 55.9334L98.8153 55.9361Z" fill="#12100B"/>
<path d="M52.1138 8.0957L40.4763 66.3098L40.3303 67.0409H26.1312L26.3069 66.3098L36.2503 24.9547H33.1024L28.9413 36.3806H17.582L37.4905 8.0957H52.1138Z" fill="#12100B"/>
<path d="M91.4795 56.5201C91.4795 69.6447 83.3843 81.7528 67.5207 81.7528C45.7019 81.7528 43.5619 61.8417 44.5779 53.9191H59.9875C59.9875 56.5201 60.663 65.9103 67.972 65.9103C71.9088 65.9103 76.7481 63.1952 76.7481 55.9548C76.7481 48.7143 71.9088 44.98 66.8506 44.98C61.7924 44.98 58.75 47.3527 56.6127 49.1655H49.0794L56.3884 13.6348H94.9732L90.1339 26.6479H69.3257L70.3389 19.8614H67.2857L60.3604 38.8865C63.0002 37.2395 66.6372 36.1523 71.6899 36.1523C84.2868 36.1523 91.4849 46.3362 91.4849 56.5174L91.4795 56.5201Z" fill="#12100B"/>
<path d="M24.207 68.832L23.6423 69.7425C23.9206 70.0225 24.2178 70.3241 24.4961 70.6557H23.8665C23.6423 72.936 22.6371 76.029 21.4888 76.029C21.0348 76.029 20.9213 74.8711 20.9213 74.1862C21.7157 73.7296 23.0748 72.137 23.0748 69.8567H21.94C21.8427 71.6287 20.5593 73.235 19.9243 73.6345L20.4701 69.8567H19.2218L18.0869 76.9204H19.446L19.7324 74.9554C19.8675 76.3361 20.2755 77.377 21.1402 77.377C21.94 77.377 22.7074 76.6513 23.1667 75.8278L22.9587 77.1514H24.2043C25.7931 76.5807 26.9982 75.094 26.9982 73.4959C26.9982 70.99 25.2257 69.5142 24.2043 68.832H24.207ZM24.3718 75.9529L25.0122 71.3488C25.4013 71.9576 25.6769 72.6615 25.6769 73.5041C25.6769 74.5695 24.9176 75.5262 24.3718 75.9529Z" fill="#12100B"/>
<path d="M31.9105 69.743C30.6837 69.743 29.8299 71.2242 29.53 72.8495C29.2895 73.0642 29.0004 73.2708 28.7356 73.4311L29.3084 69.8571H27.9493L26.8145 76.9209H28.1736L28.4843 74.9749C28.868 74.8118 29.1679 74.5998 29.4111 74.3443C29.4624 75.8011 30.0218 77.035 31.2323 77.035C33.9532 77.035 34.8584 69.7402 31.9105 69.7402V69.743ZM31.343 75.6706C30.3244 75.6706 30.8891 71.2242 31.797 71.2242C32.7049 71.2242 32.3617 75.6706 31.343 75.6706Z" fill="#12100B"/>
<path d="M46.9795 73.0469L46.7499 74.3025H44.4883L44.7125 73.0469H46.9795Z" fill="#12100B"/>
<path d="M44.6022 69.8555L43.4673 76.9192H37.6904L38.8226 69.8555H40.0682L39.2144 75.7832H40.025L40.9761 69.8555H42.3352L41.3841 75.7832H42.292L43.2404 69.8555H44.6022Z" fill="#12100B"/>
<path d="M36.7116 71.5151C36.7197 71.2025 36.6035 71.0585 36.4225 71.0585C35.2849 71.0585 34.5067 75.7305 35.6281 75.7305C36.082 75.7305 36.4225 75.2739 36.6521 75.0483L37.5573 75.7305C37.2169 76.1844 36.5386 76.9835 35.52 76.9835C32.6883 76.9835 33.9312 69.6914 36.5386 69.6914C38.0112 69.6914 37.9626 71.5124 37.9626 71.5124L37.0574 73.2246L36.1496 72.6539L36.7143 71.5178L36.7116 71.5151Z" fill="#12100B"/>
</svg>
