<svg width="60" height="51" viewBox="0 0 60 51" fill="none" xmlns="http://www.w3.org/2000/svg">
<g clip-path="url(#clip0_991_7239)">
<path d="M53.4576 21.6415C55.3743 24.4529 56.8121 28.0206 56.8121 31.5296C56.8121 36.6025 55.1333 41.3273 52.0894 44.8348C48.6364 48.8108 43.5849 51 37.8621 51C31.503 51 27.4439 48.6331 24.9894 46.3023H5.89091L11.5015 24.8521H0L18.5712 0H34.4849L33.8015 3.07205H60.0015L53.4591 21.6415H53.4576Z" fill="black"/>
<path d="M58.6485 3.87122H32.6061L33.2894 0.998047H19.1909L1.95456 23.8554H12.744L7.13486 45.304H25.1167C27.297 47.4615 31.2303 50.0033 37.6652 50.0033C43.2318 50.0033 47.9394 47.9648 51.2818 44.1138C54.203 40.7524 55.8121 36.2114 55.8121 31.3314C55.8121 27.8284 54.3546 24.5138 52.353 21.7431L58.647 3.87122H58.6485ZM55.4106 31.0089C55.4121 31.1159 55.4152 31.2244 55.4152 31.3314C55.4152 36.1165 53.8409 40.5656 50.9833 43.8531C47.7182 47.6152 43.1152 49.6055 37.6697 49.6055C31.3152 49.6055 27.4621 47.0819 25.3485 44.9635L25.2879 44.9063H7.65607L13.2652 23.4576H2.73183L19.3985 1.3958H32.7909L32.1076 4.26898H58.0727L51.9046 21.8018L51.9682 21.8877C53.897 24.5258 55.3212 27.6717 55.4091 31.0074L55.4106 31.0089Z" fill="#B12B2C"/>
<path d="M29.2228 4.48828L22.6971 36.7592L22.6153 37.1644H14.6531L14.7516 36.7592L20.3274 13.834H18.5622L16.2289 20.168H9.85919L21.0228 4.48828H29.2228Z" fill="white"/>
<path d="M51.2969 31.332C51.2969 38.6076 46.7575 45.3197 37.862 45.3197C25.6272 45.3197 24.4272 34.282 24.9969 29.8901H33.6378C33.6378 31.332 34.0166 36.5374 38.115 36.5374C40.3226 36.5374 43.0363 35.0323 43.0363 31.0186C43.0363 27.0049 40.3226 24.9348 37.4863 24.9348C34.6499 24.9348 32.9438 26.2501 31.7454 27.255H27.5211L31.6196 7.55859H53.256L50.5423 14.7724H38.8741L39.4423 11.0103H37.7302L33.8469 21.5568C35.3272 20.6438 37.3666 20.0412 40.1999 20.0412C47.2635 20.0412 51.2999 25.6866 51.2999 31.3305L51.2969 31.332Z" fill="white"/>
<path d="M13.5744 38.1582L13.2577 38.6629C13.4138 38.8181 13.5804 38.9854 13.7365 39.1692H13.3835C13.2577 40.4332 12.6941 42.1478 12.0501 42.1478C11.7956 42.1478 11.732 41.506 11.732 41.1263C12.1774 40.8732 12.9395 39.9903 12.9395 38.7262H12.3032C12.2486 39.7085 11.5289 40.599 11.1729 40.8205L11.4789 38.7262H10.7789L10.1426 42.642H10.9047L11.0653 41.5527C11.141 42.3181 11.3698 42.8951 11.8547 42.8951C12.3032 42.8951 12.7335 42.4928 12.991 42.0363L12.8744 42.77H13.5729C14.4638 42.4537 15.1395 41.6295 15.1395 40.7436C15.1395 39.3545 14.1456 38.5364 13.5729 38.1582H13.5744ZM13.6668 42.1056L14.0259 39.5534C14.2441 39.8908 14.3986 40.2811 14.3986 40.7481C14.3986 41.3387 13.9729 41.8691 13.6668 42.1056Z" fill="white"/>
<path d="M17.8941 38.6636C17.2063 38.6636 16.7275 39.4847 16.5593 40.3857C16.4244 40.5047 16.2623 40.6192 16.1138 40.7081L16.435 38.7269H15.6729L15.0366 42.6427H15.7987L15.9729 41.5639C16.1881 41.4735 16.3563 41.356 16.4926 41.2144C16.5214 42.0219 16.835 42.7059 17.5138 42.7059C19.0396 42.7059 19.5472 38.6621 17.8941 38.6621V38.6636ZM17.576 41.9496C17.0047 41.9496 17.3214 39.4847 17.8305 39.4847C18.3396 39.4847 18.1472 41.9496 17.576 41.9496Z" fill="white"/>
<path d="M26.3441 40.4941L26.2153 41.1902H24.9471L25.0728 40.4941H26.3441Z" fill="white"/>
<path d="M25.0108 38.7266L24.3744 42.6423H21.135L21.7699 38.7266H22.4684L21.9896 42.0126H22.4441L22.9775 38.7266H23.7396L23.2063 42.0126H23.7153L24.2472 38.7266H25.0108Z" fill="white"/>
<path d="M20.5864 39.6457C20.5909 39.4725 20.5258 39.3926 20.4242 39.3926C19.7864 39.3926 19.35 41.9825 19.9788 41.9825C20.2333 41.9825 20.4242 41.7294 20.553 41.6044L21.0606 41.9825C20.8697 42.2341 20.4894 42.6771 19.9182 42.6771C18.3303 42.6771 19.0273 38.6348 20.4894 38.6348C21.3152 38.6348 21.2879 39.6442 21.2879 39.6442L20.7803 40.5934L20.2712 40.277L20.5879 39.6472L20.5864 39.6457Z" fill="white"/>
</g>
<defs>
<clipPath id="clip0_991_7239">
<rect width="60" height="51" fill="white"/>
</clipPath>
</defs>
</svg>
