<svg width="36" height="36" viewBox="0 0 36 36" fill="none" xmlns="http://www.w3.org/2000/svg">
<g clip-path="url(#clip0_1158_24572)">
<mask id="mask0_1158_24572" style="mask-type:luminance" maskUnits="userSpaceOnUse" x="0" y="0" width="37" height="36">
<path d="M36.4502 0H0.450195V36H36.4502V0Z" fill="white"/>
</mask>
<g mask="url(#mask0_1158_24572)">
<path d="M19.98 23.2209C20.7 25.2009 21.06 26.8209 21.33 27.8109C21.78 29.7009 21.96 31.3209 22.14 32.5809C21.42 30.4209 20.43 27.9009 18.9 25.2009C17.82 23.3109 16.74 21.6909 15.75 20.3409C16.36 19.5275 16.837 18.3951 17.19 17.4609C18.54 19.7109 19.35 21.6909 19.98 23.2209Z" fill="black"/>
<path d="M17.4598 9.63001C17.6214 9.94447 17.6871 9.9928 17.7298 10.62C17.8841 12.8901 17.6041 14.9377 17.0537 17.1442C16.7789 18.0286 16.2495 19.0596 15.0795 21.1296C14.7195 21.8496 12.5098 25.65 12.4198 25.83C11.7898 27 10.7998 28.98 9.35979 32.58C9.35979 32.58 9.71979 29.52 10.4398 26.19C10.7998 24.48 11.1353 23.3514 11.5853 22.1814C11.9453 21.2814 13.3058 18.1378 13.4858 17.5978C13.7558 16.709 14.1833 15.3958 14.1568 13.9337C14.0696 12.7538 14.0167 12.141 13.5285 11.5462C12.9582 10.9842 10.7646 11.1565 10.2443 11.153C9.90213 11.1433 9.26779 11.1599 8.63979 11.07C7.85846 10.9788 7.41419 10.8333 7.29929 10.3936C7.26221 10.2516 7.24258 10.0446 7.35831 9.86788C7.68842 9.36361 12.3381 8.15996 16.1098 8.82001C16.5411 8.90709 17.1898 9.09001 17.4598 9.63001Z" fill="black"/>
<path d="M17.5053 5.55478C17.5953 6.36478 17.5053 7.89478 16.5153 8.34478C15.6153 8.70478 14.6253 7.98478 14.1753 7.44478C13.4553 6.63478 13.0953 5.19478 13.8153 4.20478C14.1753 3.57478 14.9853 3.03478 15.8853 3.21478C17.2353 3.39478 17.5053 5.37478 17.5053 5.55478Z" fill="black"/>
<path d="M27.5387 9.63086C26.1887 10.7109 24.7487 11.4309 23.8487 11.7909C22.6787 12.2409 21.8687 12.6009 20.6087 12.6009H20.5187C19.3487 12.6009 18.5387 12.4209 17.9987 12.1509C18.0103 11.4341 18.0186 11.053 17.9087 10.2609C18.4487 10.4409 19.2587 10.6209 20.2487 10.7109H21.2387C22.4087 10.7109 23.5787 10.4409 25.0187 10.2609C26.0087 9.99086 26.9087 9.72086 27.5387 9.63086Z" fill="black"/>
<path d="M32.4875 9.17969L19.7075 9.98969C19.7075 9.98969 18.0875 9.89969 17.3675 10.1697C16.4675 10.5297 15.4775 11.1597 15.2075 10.9797C14.7575 10.6197 14.6675 9.35969 14.6675 9.35969L17.6375 9.17969H32.4875Z" fill="#DC052D"/>
<path d="M3.50879 32.9411C3.50879 32.9411 30.9588 32.6711 31.4088 32.5811C31.8588 32.4011 32.0388 32.4011 32.3988 32.2211C32.6688 32.1311 33.7488 31.9511 33.2988 32.3111C32.8488 32.7611 31.9488 32.9411 31.5888 32.9411C31.2288 32.9411 22.2288 32.9411 21.7788 32.8511C21.4188 32.9411 3.50879 32.9411 3.50879 32.9411Z" fill="#DC052D"/>
</g>
</g>
<defs>
<clipPath id="clip0_1158_24572">
<rect width="36" height="36" fill="white"/>
</clipPath>
</defs>
</svg>
