<svg width="40" height="40" viewBox="0 0 40 40" fill="none" xmlns="http://www.w3.org/2000/svg">
<path d="M21.4976 19.9942L32.7536 8.72723C32.9522 8.52768 33.0636 8.25755 33.0634 7.97603C33.0632 7.6945 32.9515 7.42453 32.7526 7.22523C32.3546 6.82923 31.6536 6.82723 31.2516 7.22723L19.9986 18.4942L8.74162 7.22423C8.34162 6.82923 7.64062 6.83123 7.24262 7.22623C7.14383 7.32463 7.06563 7.44171 7.01257 7.57065C6.95952 7.69959 6.93268 7.83781 6.93362 7.97723C6.93362 8.26123 7.04362 8.52723 7.24262 8.72423L18.4986 19.9932L7.24362 31.2632C7.045 31.4631 6.93378 31.7336 6.93434 32.0154C6.9349 32.2971 7.04721 32.5672 7.24662 32.7662C7.43962 32.9572 7.71262 33.0672 7.99462 33.0672H8.00062C8.28362 33.0662 8.55662 32.9552 8.74562 32.7622L19.9986 21.4952L31.2556 32.7652C31.4546 32.9632 31.7206 33.0732 32.0026 33.0732C32.142 33.0734 32.28 33.046 32.4088 32.9927C32.5376 32.9395 32.6546 32.8613 32.7532 32.7628C32.8517 32.6642 32.9299 32.5472 32.9831 32.4184C33.0364 32.2896 33.0638 32.1516 33.0636 32.0122C33.0636 31.7292 32.9536 31.4622 32.7536 31.2652L21.4976 19.9942Z" fill="#EEEEEE"/>
</svg>
