<svg width="32" height="32" viewBox="0 0 32 32" fill="none" xmlns="http://www.w3.org/2000/svg">
<path d="M16.0017 12.0013C14.9408 12.0013 13.9234 12.4227 13.1732 13.1729C12.4231 13.923 12.0017 14.9404 12.0017 16.0013C12.0017 17.0622 12.4231 18.0796 13.1732 18.8297C13.9234 19.5799 14.9408 20.0013 16.0017 20.0013C17.0625 20.0013 18.0799 19.5799 18.8301 18.8297C19.5802 18.0796 20.0017 17.0622 20.0017 16.0013C20.0017 14.9404 19.5802 13.923 18.8301 13.1729C18.0799 12.4227 17.0625 12.0013 16.0017 12.0013ZM16.0017 9.33463C17.7698 9.33464 19.4655 10.037 20.7157 11.2873C21.9659 12.5375 22.6683 14.2332 22.6683 16.0013C22.6683 17.7694 21.9659 19.4651 20.7157 20.7153C19.4655 21.9656 17.7698 22.668 16.0017 22.668C14.2335 22.668 12.5379 21.9656 11.2876 20.7153C10.0374 19.4651 9.33499 17.7694 9.33499 16.0013C9.33499 14.2332 10.0374 12.5375 11.2876 11.2873C12.5379 10.037 14.2335 9.33464 16.0017 9.33463ZM24.6683 9.0013C24.6683 9.44333 24.4927 9.86725 24.1802 10.1798C23.8676 10.4924 23.4437 10.668 23.0017 10.668C22.5596 10.668 22.1357 10.4924 21.8231 10.1798C21.5106 9.86725 21.335 9.44333 21.335 9.0013C21.335 8.55927 21.5106 8.13535 21.8231 7.82279C22.1357 7.51023 22.5596 7.33464 23.0017 7.33464C23.4437 7.33464 23.8676 7.51023 24.1802 7.82279C24.4927 8.13535 24.6683 8.55927 24.6683 9.0013ZM16.0017 5.33464C12.703 5.33464 12.1643 5.34397 10.6297 5.41197C9.58433 5.4613 8.88299 5.6013 8.23233 5.85464C7.6881 6.05513 7.19595 6.37548 6.79233 6.79197C6.37536 7.19546 6.05454 7.68762 5.85366 8.23197C5.60033 8.8853 5.46033 9.5853 5.41233 10.6293C5.34299 12.1013 5.33366 12.616 5.33366 16.0013C5.33366 19.3013 5.34299 19.8386 5.41099 21.3733C5.46033 22.4173 5.60033 23.12 5.85233 23.7693C6.07899 24.3493 6.34566 24.7666 6.78833 25.2093C7.23766 25.6573 7.65499 25.9253 8.22833 26.1466C8.88699 26.4013 9.58833 26.5426 10.6283 26.5906C12.1003 26.66 12.615 26.668 16.0003 26.668C19.3003 26.668 19.8377 26.6586 21.3723 26.5906C22.415 26.5413 23.1163 26.4013 23.7683 26.1493C24.3125 25.9488 24.8047 25.6285 25.2083 25.212C25.6577 24.764 25.9257 24.3466 26.147 23.772C26.4003 23.116 26.5417 22.4146 26.5897 21.372C26.659 19.9013 26.667 19.3853 26.667 16.0013C26.667 12.7026 26.6577 12.164 26.5897 10.6293C26.5403 9.58664 26.399 8.88263 26.147 8.23197C25.9465 7.68775 25.6261 7.1956 25.2097 6.79197C24.8062 6.375 24.314 6.05418 23.7697 5.8533C23.1163 5.59997 22.415 5.45997 21.3723 5.41197C19.9017 5.34264 19.387 5.33464 16.0003 5.33464M16.0003 2.66797C19.623 2.66797 20.075 2.6813 21.4977 2.74797C22.9163 2.81464 23.8843 3.0373 24.7337 3.36797C25.6137 3.70664 26.355 4.1653 27.0963 4.9053C27.7746 5.57161 28.2992 6.37793 28.6337 7.26797C28.963 8.1173 29.187 9.0853 29.2537 10.5053C29.3163 11.9266 29.3337 12.3786 29.3337 16.0013C29.3337 19.624 29.3203 20.076 29.2537 21.4973C29.187 22.9186 28.963 23.884 28.6337 24.7346C28.2992 25.6247 27.7746 26.431 27.0963 27.0973C26.43 27.7756 25.6237 28.3002 24.7337 28.6346C23.8843 28.964 22.9163 29.188 21.4977 29.2546C20.075 29.3173 19.623 29.3346 16.0003 29.3346C12.3777 29.3346 11.9257 29.3213 10.503 29.2546C9.08432 29.188 8.11766 28.964 7.26699 28.6346C6.37695 28.3002 5.57064 27.7756 4.90433 27.0973C4.22607 26.431 3.70141 25.6247 3.36699 24.7346C3.03633 23.8853 2.81366 22.9173 2.74699 21.4973C2.68299 20.076 2.66699 19.624 2.66699 16.0013C2.66699 12.3786 2.68033 11.9266 2.74699 10.5053C2.81366 9.08397 3.03633 8.11863 3.36699 7.26797C3.70141 6.37793 4.22607 5.57161 4.90433 4.9053C5.57064 4.22704 6.37695 3.70239 7.26699 3.36797C8.11632 3.0373 9.08299 2.81464 10.503 2.74797C11.927 2.6853 12.379 2.66797 16.0017 2.66797" fill="#EEEEEE"/>
</svg>
