<svg width="32" height="32" viewBox="0 0 32 32" fill="none" xmlns="http://www.w3.org/2000/svg">
<path d="M4.6242 3.19922H27.3922C28.1762 3.19922 28.8002 3.82322 28.8002 4.60722V27.3912C28.8002 28.1592 28.1762 28.7992 27.3922 28.7992H20.8642V18.8792H24.1922L24.6882 15.0232H20.8642V12.5592C20.8642 11.4392 21.1842 10.6712 22.7842 10.6712H24.8322V7.21522C24.4802 7.16722 23.2642 7.07122 21.8562 7.07122C18.8962 7.07122 16.8802 8.86322 16.8802 12.1752V15.0232H13.5362V18.8792H16.8802V28.7992H4.6242C4.24928 28.7992 3.88949 28.6514 3.62289 28.3878C3.35629 28.1242 3.20441 27.7661 3.2002 27.3912V4.60722C3.2002 3.82322 3.8402 3.19922 4.6242 3.19922Z" fill="#EEEEEE"/>
</svg>
