<svg width="24" height="24" viewBox="0 0 24 24" fill="none" xmlns="http://www.w3.org/2000/svg">
<path fill-rule="evenodd" clip-rule="evenodd" d="M5.46934 5.47032C5.60997 5.32987 5.80059 5.25098 5.99934 5.25098C6.19809 5.25098 6.38871 5.32987 6.52934 5.47032L18.5293 17.4703C18.603 17.539 18.6621 17.6218 18.7031 17.7138C18.7441 17.8058 18.7662 17.9051 18.7679 18.0058C18.7697 18.1065 18.7512 18.2065 18.7135 18.2999C18.6757 18.3933 18.6196 18.4781 18.5484 18.5494C18.4772 18.6206 18.3923 18.6767 18.2989 18.7144C18.2055 18.7522 18.1055 18.7707 18.0048 18.7689C17.9041 18.7671 17.8048 18.7451 17.7128 18.7041C17.6208 18.6631 17.538 18.604 17.4693 18.5303L5.46934 6.53032C5.32889 6.38969 5.25 6.19907 5.25 6.00032C5.25 5.80157 5.32889 5.61094 5.46934 5.47032Z" fill="white"/>
<path fill-rule="evenodd" clip-rule="evenodd" d="M18.5269 5.47032C18.6674 5.61094 18.7463 5.80157 18.7463 6.00032C18.7463 6.19907 18.6674 6.38969 18.5269 6.53032L6.52692 18.5303C6.38474 18.6628 6.1967 18.7349 6.00239 18.7315C5.80809 18.7281 5.62271 18.6494 5.48529 18.5119C5.34788 18.3745 5.26917 18.1891 5.26574 17.9948C5.26231 17.8005 5.33444 17.6125 5.46692 17.4703L17.4669 5.47032C17.6075 5.32987 17.7982 5.25098 17.9969 5.25098C18.1957 5.25098 18.3863 5.32987 18.5269 5.47032Z" fill="white"/>
</svg>
