<svg width="22" height="23" viewBox="0 0 22 23" fill="none" xmlns="http://www.w3.org/2000/svg">
<path d="M10.9994 15.6429C11.2631 15.6353 11.4891 15.5374 11.6925 15.334L17.4255 9.47294C17.5912 9.29967 17.6816 9.09626 17.6816 8.84766C17.6816 8.34291 17.2899 7.95117 16.7852 7.95117C16.5441 7.95117 16.3181 8.04911 16.1448 8.22238L10.9994 13.4958L5.85407 8.22238C5.6808 8.04911 5.46233 7.95117 5.21373 7.95117C4.70898 7.95117 4.31724 8.34291 4.31724 8.84766C4.31724 9.08873 4.40765 9.29967 4.57338 9.47294L10.3139 15.334C10.5098 15.5449 10.7358 15.6429 10.9994 15.6429Z" fill="#EEEEEE"/>
</svg>
