<svg width="40" height="36" viewBox="0 0 40 36" fill="none" xmlns="http://www.w3.org/2000/svg">
<g clip-path="url(#clip0_1158_21761)">
<mask id="mask0_1158_21761" style="mask-type:luminance" maskUnits="userSpaceOnUse" x="-3" y="0" width="46" height="36">
<path d="M42.5 0H-2.5V36H42.5V0Z" fill="white"/>
</mask>
<g mask="url(#mask0_1158_21761)">
<path d="M-0.0458984 18.8906C-0.0458984 18.8906 11.5072 31.7966 12.2878 31.9676C13.0684 32.1386 14.0419 32.1656 13.6837 31.7516C13.5459 31.5896 13.3623 31.6256 13.1878 31.5986C12.9214 31.5536 12.6551 31.5086 12.4439 31.4906C12.1041 31.4636 9.67043 29.0426 9.67043 29.0426L-0.0458984 18.8906Z" fill="#DC052D"/>
<path d="M1.7334 14.877C1.7334 14.877 13.6263 14.373 13.9844 14.373C14.3426 14.373 14.0395 14.922 13.6997 15.084C13.3599 15.246 1.74258 14.877 1.74258 14.877H1.7334Z" fill="#DC052D"/>
<path d="M38.321 10.4927C38.4404 10.3127 39.0373 10.1057 39.1567 10.4927C39.2761 10.8797 29.0547 20.1497 29.0547 20.1497C29.0547 20.1497 38.2016 10.6727 38.321 10.4927Z" fill="#DC052D"/>
<path d="M15.4032 32.3895C15.4032 32.3895 35.0747 32.1015 35.543 31.9575C36.0114 31.8135 36.1951 31.7595 36.4889 31.6245C36.7828 31.4985 37.8298 31.3455 37.3981 31.7505C36.9757 32.1555 36.0298 32.3355 35.7083 32.3805C35.3869 32.4255 26.3593 32.3445 25.9461 32.3355C25.5236 32.3265 15.394 32.3805 15.394 32.3805L15.4032 32.3895Z" fill="#DC052D"/>
<path d="M27.8666 9.21637C28.1881 9.27037 28.7299 9.41437 29.0054 9.83737C30.4013 11.9794 25.4942 19.6298 17.5136 22.2398C15.6309 22.8608 10.2799 24.4984 4.40234 22.7614C4.935 22.8244 5.72479 22.8964 6.67989 22.8874C12.2268 22.8334 17.0003 20.2864 19.0115 18.8914C22.2534 16.6414 24.3782 14.1045 25.3948 11.4484C23.5948 11.5654 20.6758 12.1414 17.7738 13.4914C16.2034 14.2204 14.9268 15.0664 13.9534 15.8224C14.6238 15.0034 17.0299 12.1684 20.2809 10.5214C22.2003 9.54937 24.0462 9.17137 24.8176 9.09937C25.4513 9.03637 26.085 9.04537 26.085 9.04537C26.7921 9.05437 27.3983 9.12637 27.8666 9.20737V9.21637Z" fill="black"/>
<path d="M29.292 9.37861C30.7338 9.16261 31.9736 9.09961 32.9195 9.09961C34.04 9.09961 35.3257 9.09961 36.9512 9.49561C37.4838 9.62161 37.9246 9.76561 38.2369 9.87361C38.5491 9.99961 38.9348 10.1706 38.9257 10.1976C38.9257 10.2246 38.6318 10.1436 38.5859 10.1256C37.3185 9.77461 34.7655 10.1796 34.7655 10.1796C32.5246 10.5396 30.5134 11.1336 29.5124 11.4486C29.5859 11.2506 29.7053 10.8816 29.6502 10.3956C29.6042 9.90061 29.4022 9.54061 29.292 9.36961V9.37861Z" fill="black"/>
<path d="M29.5594 5.36361C29.8992 6.11061 30.2482 7.64061 29.3666 8.31561C28.6135 8.90061 27.4196 8.49561 26.8043 8.10861C25.8676 7.52361 25.1054 6.27261 25.4911 5.07561C25.7115 4.39161 26.3451 3.61761 27.2084 3.52761C28.6319 3.38361 29.486 5.21061 29.5594 5.35461V5.36361Z" fill="black"/>
<path d="M27.0438 22.6704C27.1632 23.3364 27.3928 24.6864 27.0989 26.3964C27.0622 26.6394 27.0163 26.8284 26.9887 26.9544C26.5112 29.0964 25.4734 30.6174 24.7846 31.4544C25.051 30.4194 25.5928 27.3864 25.5928 26.9184C25.5928 25.0824 24.9867 23.3814 23.9581 21.9684C23.9581 21.9684 23.9489 21.9684 23.9489 21.9594C23.7561 21.7164 23.554 21.4644 23.3336 21.2034C23.0948 20.9244 22.8561 20.6634 22.6265 20.4204C23.0489 20.1504 23.5265 19.8084 24.0224 19.3674C24.5183 18.9264 24.9132 18.4944 25.2163 18.1074C25.7765 18.9894 26.6581 20.6004 27.0254 22.6884L27.0438 22.6704Z" fill="black"/>
</g>
</g>
<defs>
<clipPath id="clip0_1158_21761">
<rect width="40" height="36" fill="white"/>
</clipPath>
</defs>
</svg>
