<svg width="70" height="70" viewBox="0 0 70 70" fill="none" xmlns="http://www.w3.org/2000/svg">
<g clip-path="url(#clip0_967_30651)">
<mask id="mask0_967_30651" style="mask-type:luminance" maskUnits="userSpaceOnUse" x="0" y="0" width="71" height="70">
<path d="M70.875 0H0.875V70H70.875V0Z" fill="white"/>
</mask>
<g mask="url(#mask0_967_30651)">
<path d="M38.85 45.1453C40.25 48.9953 40.95 52.1453 41.475 54.0703C42.35 57.7453 42.7 60.8953 43.05 63.3453C41.65 59.1453 39.725 54.2453 36.75 48.9953C34.65 45.3203 32.55 42.1703 30.625 39.5453C31.8112 37.9637 32.7387 35.7618 33.425 33.9453C36.05 38.3203 37.625 42.1703 38.85 45.1453Z" fill="#E4E4E4"/>
<path d="M33.9492 18.7238C34.2635 19.3353 34.3913 19.4292 34.4742 20.6488C34.7742 25.0628 34.2297 29.0443 33.1596 33.3347C32.6253 35.0545 31.5958 37.0591 29.3208 41.0841C28.6208 42.4841 24.3242 49.8738 24.1492 50.2238C22.9242 52.4988 20.9992 56.3488 18.1992 63.3488C18.1992 63.3488 18.8992 57.3988 20.2992 50.9238C20.9992 47.5988 21.6516 45.4043 22.5266 43.1293C23.2266 41.3793 25.8719 35.2667 26.2219 34.2167C26.7469 32.4884 27.5782 29.935 27.5267 27.0921C27.3571 24.7979 27.2542 23.6063 26.305 22.4497C25.1961 21.357 20.9308 21.692 19.9191 21.6852C19.2538 21.6663 18.0203 21.6986 16.7992 21.5238C15.28 21.3465 14.4161 21.0636 14.1927 20.2085C14.1206 19.9325 14.0824 19.53 14.3074 19.1863C14.9493 18.2058 23.9903 15.8654 31.3242 17.1488C32.1628 17.3182 33.4242 17.6738 33.9492 18.7238Z" fill="#E4E4E4"/>
<path d="M34.0377 10.7979C34.2127 12.3729 34.0377 15.3479 32.1127 16.2229C30.3627 16.9229 28.4377 15.5229 27.5627 14.4729C26.1627 12.8979 25.4627 10.0979 26.8627 8.17293C27.5627 6.94793 29.1377 5.89793 30.8877 6.24793C33.5127 6.59793 34.0377 10.4479 34.0377 10.7979Z" fill="#E4E4E4"/>
<path d="M53.5473 18.7227C50.9223 20.8227 48.1223 22.2227 46.3723 22.9227C44.0973 23.7977 42.5223 24.4977 40.0723 24.4977H39.8973C37.6223 24.4977 36.0473 24.1477 34.9973 23.6227C35.0198 22.229 35.0359 21.488 34.8223 19.9477C35.8723 20.2977 37.4473 20.6477 39.3723 20.8227H41.2973C43.5723 20.8227 45.8473 20.2977 48.6473 19.9477C50.5723 19.4227 52.3223 18.8977 53.5473 18.7227Z" fill="#E4E4E4"/>
<path d="M63.1695 17.8477L38.3195 19.4227C38.3195 19.4227 35.1695 19.2477 33.7695 19.7727C32.0195 20.4727 30.0945 21.6977 29.5695 21.3477C28.6945 20.6477 28.5195 18.1977 28.5195 18.1977L34.2945 17.8477H63.1695Z" fill="#DC052D"/>
<path d="M6.82227 64.05C6.82227 64.05 60.1973 63.525 61.0723 63.35C61.9473 63 62.2973 63 62.9973 62.65C63.5223 62.475 65.6223 62.125 64.7473 62.825C63.8723 63.7 62.1223 64.05 61.4223 64.05C60.7223 64.05 43.2223 64.05 42.3473 63.875C41.6473 64.05 6.82227 64.05 6.82227 64.05Z" fill="#DC052D"/>
</g>
</g>
<defs>
<clipPath id="clip0_967_30651">
<rect width="70" height="70" fill="white"/>
</clipPath>
</defs>
</svg>
