<svg width="70" height="70" viewBox="0 0 70 70" fill="none" xmlns="http://www.w3.org/2000/svg">
<mask id="mask0_967_30693" style="mask-type:luminance" maskUnits="userSpaceOnUse" x="0" y="0" width="70" height="70">
<path d="M70 0H0V70H70V0Z" fill="white"/>
</mask>
<g mask="url(#mask0_967_30693)">
<path d="M47.3795 66.4714L5.53711 24.1914V26.0289L36.197 58.0189L47.3795 66.4714Z" fill="#E4E4E4"/>
<path d="M7.71094 23.6875C7.71094 23.6875 40.1033 56.43 41.4508 57.41C42.7983 58.39 47.646 58.845 47.366 59.3875C47.086 59.93 45.8085 60.56 44.8285 60.5075C43.8485 60.455 42.291 59.7025 41.731 59.3875C41.171 59.0725 7.71094 23.6875 7.71094 23.6875Z" fill="#DC052D"/>
<path d="M60.152 38.7291C59.4249 38.3397 59.1782 38.2225 57.8753 37.3777C55.6353 35.9252 54.9983 35.6065 54.0533 34.714C52.3733 33.139 51.0608 31.9141 50.5708 29.9715C49.9408 27.3991 50.1508 20.9766 50.1508 20.9766C50.1508 20.9766 49.9758 20.6266 49.9408 20.5916C48.9783 19.1916 44.0083 19.8215 44.0083 19.8215C40.6483 20.2765 38.9683 20.4866 38.7408 21.2566C38.2333 23.0066 43.8158 25.859 45.5658 30.024C45.8283 30.654 46.0033 31.3365 45.8633 32.1241C45.7233 32.9991 45.1458 34.189 41.5758 36.3415C39.8433 37.3916 37.9538 38.5035 36.2388 39.2735C33.6838 40.446 29.6532 42.4609 28.0957 43.1609C29.9857 41.4459 33.4388 38.9527 34.5238 38.0952C34.5238 38.0952 36.5183 36.6565 38.8808 34.3815C40.0533 33.2615 40.7008 32.5615 40.6833 31.634C40.6833 30.6715 39.9658 29.9541 39.4758 29.4991C36.6233 26.734 33.9283 24.6866 33.9283 24.6866C29.2908 21.1691 29.0458 19.9791 29.0108 19.3666C28.9233 17.8616 29.9208 16.6891 30.1133 16.4616C30.1133 16.4616 31.5658 14.7641 38.6708 13.5741C38.6708 13.5741 38.7933 13.5566 38.8808 13.5391C39.0383 13.5041 38.9508 13.5391 38.9683 13.5391C39.1258 13.5041 39.4758 13.4516 39.5108 13.4516C42.4683 13.0316 46.0033 13.1891 46.0033 13.1891C52.6708 13.4516 53.6858 14.3616 54.2283 15.0441C54.2633 15.0966 54.3158 15.1666 54.3683 15.2366C55.6808 17.4066 55.0508 19.804 54.4733 22.7615C53.7383 26.524 53.3883 28.3966 53.7208 29.8141C54.2108 31.8265 55.4008 33.174 57.4133 35.4665C59.7233 38.109 60.392 38.5541 60.2695 38.7291H60.152Z" fill="#E4E4E4"/>
<path d="M56.4295 17.4589C56.062 19.0164 55.9745 22.0439 57.882 23.0239C59.5095 23.8639 61.592 22.6739 62.607 21.7114C64.147 20.2589 65.127 17.5989 63.9545 15.4464C63.2895 14.2214 61.8195 12.9614 60.1745 13.1189C57.462 13.3639 56.517 17.1439 56.447 17.4589H56.4295Z" fill="#E4E4E4"/>
<path d="M48.2426 29.1299C48.0501 29.0249 44.8301 25.3324 40.8926 20.7824C39.0201 18.6299 36.9726 16.2673 35.0301 14.0098C30.5326 8.79484 26.5076 4.10484 26.0176 3.52734C26.5601 4.12234 31.0226 9.02234 35.9576 14.0098C38.2676 16.3373 40.5251 18.7699 42.5376 20.8174C45.4951 23.8099 47.7701 26.4874 47.9451 26.7149C48.4876 27.4149 48.7151 29.3924 48.2426 29.1299Z" fill="#DC052D"/>
</g>
</svg>
