<svg width="70" height="70" viewBox="0 0 70 70" fill="none" xmlns="http://www.w3.org/2000/svg">
<mask id="mask0_967_30635" style="mask-type:luminance" maskUnits="userSpaceOnUse" x="0" y="0" width="70" height="70">
<path d="M70 0H0V70H70V0Z" fill="white"/>
</mask>
<g mask="url(#mask0_967_30635)">
<path d="M44.5399 44.3836C45.2049 48.2686 44.6449 51.6286 44.6449 51.6286C44.6274 51.7686 44.5574 52.1536 44.4349 52.7136C44.0324 54.5336 43.1749 57.5611 41.0924 61.7961C41.7749 57.9111 42.3862 53.8506 42.3337 51.6981C42.3646 48.1795 41.144 46.0071 39.3865 43.0186C38.3955 41.2287 37.4384 40.4442 36.709 39.6448C38.6419 37.1878 39.6257 35.1026 39.9549 33.6211C40.6724 34.6711 43.6474 39.1511 44.5574 44.4011L44.5399 44.3836Z" fill="#E4E4E4"/>
<path d="M38.7778 19.6269C38.7778 19.6269 39.2853 19.9944 39.6703 20.5194C41.2803 22.6719 40.8022 27.1815 40.4736 29.2698C39.8341 32.3311 39.5711 34.5112 36.7044 38.7242C35.884 39.9299 34.735 41.0539 33.4822 42.3038C32.3385 43.4467 30.8503 44.6206 28.5403 45.8281C27.0703 46.5981 24.784 47.5044 20.7415 47.7144C15.6139 47.9944 10.9003 46.1674 9.13281 45.1174C10.7078 45.3624 15.5028 45.676 18.3378 45.326C21.5067 44.849 24.7182 43.8678 27.2655 42.0051C29.408 40.3858 31.9283 37.8625 33.5558 34.0475C35.3058 29.935 34.7131 25.9707 33.6318 24.2447C29.7058 23.4894 22.248 30.542 18.9328 35.5869C19.8428 32.4894 21.6803 27.9744 25.4603 24.0019C25.8978 23.5294 28.3828 21.0619 32.0578 19.5394C32.5653 19.3294 34.4553 18.5769 36.5028 18.8219C37.4079 18.8947 38.2037 19.152 38.7778 19.6269Z" fill="#E4E4E4"/>
<path d="M39.9492 19.467C42.6267 19.047 45.6021 18.837 48.2971 18.837C48.2971 18.837 52.5846 18.767 56.7321 19.7645C57.8521 20.027 58.7796 20.3245 59.4271 20.5345C60.0921 20.797 60.8971 21.1295 60.8796 21.182C60.8621 21.2345 60.2671 21.0595 60.1621 21.042C57.5021 20.307 50.8286 20.891 50.8286 20.891C46.1561 21.5035 43.1902 22.5851 41.2446 23.2995C41.139 21.8487 40.5841 20.6939 39.9492 19.467Z" fill="#E4E4E4"/>
<path d="M39.4968 12.6912C39.7068 14.2662 39.5143 17.3112 37.5368 18.0987C35.8393 18.7812 33.8793 17.3987 32.9518 16.3487C31.5518 14.7562 30.8343 12.0262 32.2168 9.97872C32.9868 8.82372 34.5618 7.70372 36.2068 8.01872C38.8843 8.50872 39.4618 12.3762 39.4968 12.6912Z" fill="#E4E4E4"/>
<path d="M26.3118 62.0455C28.815 62.0455 30.8443 60.0162 30.8443 57.513C30.8443 55.0098 28.815 52.9805 26.3118 52.9805C23.8086 52.9805 21.7793 55.0098 21.7793 57.513C21.7793 60.0162 23.8086 62.0455 26.3118 62.0455Z" fill="#DC052D"/>
</g>
</svg>
