<svg width="22" height="23" viewBox="0 0 22 23" fill="none" xmlns="http://www.w3.org/2000/svg">
<path d="M10.9994 7.35714C11.2631 7.36468 11.4891 7.46261 11.6925 7.66602L17.4255 13.5271C17.5912 13.7003 17.6816 13.9037 17.6816 14.1523C17.6816 14.6571 17.2899 15.0488 16.7852 15.0488C16.5441 15.0488 16.3181 14.9509 16.1448 14.7776L10.9994 9.50419L5.85407 14.7776C5.6808 14.9509 5.46233 15.0488 5.21373 15.0488C4.70898 15.0488 4.31724 14.6571 4.31724 14.1523C4.31724 13.9113 4.40765 13.7003 4.57338 13.5271L10.3139 7.66602C10.5098 7.45508 10.7358 7.35714 10.9994 7.35714Z" fill="#EEEEEE"/>
</svg>
