<svg width="36" height="36" viewBox="0 0 36 36" fill="none" xmlns="http://www.w3.org/2000/svg">
<g clip-path="url(#clip0_1158_24560)">
<mask id="mask0_1158_24560" style="mask-type:luminance" maskUnits="userSpaceOnUse" x="0" y="0" width="36" height="36">
<path d="M36 0H0V36H36V0Z" fill="white"/>
</mask>
<g mask="url(#mask0_1158_24560)">
<path d="M22.9062 22.826C23.2482 24.824 22.9602 26.552 22.9602 26.552C22.9512 26.624 22.9152 26.822 22.8522 27.11C22.6452 28.046 22.2042 29.603 21.1332 31.781C21.4842 29.783 21.7986 27.6947 21.7716 26.5877C21.7875 24.7782 21.1598 23.6609 20.2559 22.124C19.7462 21.2035 19.254 20.8 18.8789 20.3889C19.873 19.1253 20.3789 18.053 20.5482 17.291C20.9172 17.831 22.4472 20.135 22.9152 22.835L22.9062 22.826Z" fill="black"/>
<path d="M19.9428 10.0913C19.9428 10.0913 20.2038 10.2803 20.4018 10.5503C21.2298 11.6573 20.9839 13.9765 20.8149 15.0505C20.486 16.6248 20.3508 17.7461 18.8765 19.9127C18.4545 20.5328 17.8636 21.1109 17.2193 21.7537C16.6311 22.3415 15.8658 22.9452 14.6778 23.5662C13.9218 23.9622 12.7459 24.4283 10.6669 24.5363C8.02992 24.6803 5.60578 23.7407 4.69678 23.2007C5.50678 23.3267 7.97276 23.488 9.43079 23.308C11.0605 23.0626 12.7121 22.558 14.0221 21.6C15.124 20.7673 16.4202 19.4696 17.2572 17.5076C18.1572 15.3926 17.8524 13.3538 17.2962 12.4661C15.2772 12.0777 11.4417 15.7048 9.73679 18.2993C10.2048 16.7063 11.1498 14.3843 13.0938 12.3413C13.3188 12.0983 14.5968 10.8293 16.4868 10.0463C16.7478 9.93828 17.7198 9.55128 18.7728 9.67728C19.2383 9.71472 19.6475 9.84702 19.9428 10.0913Z" fill="black"/>
<path d="M20.5454 10.0101C21.9224 9.79409 23.4526 9.68609 24.8386 9.68609C24.8386 9.68609 27.0436 9.65009 29.1766 10.1631C29.7526 10.2981 30.2296 10.4511 30.5626 10.5591C30.9046 10.6941 31.3186 10.8651 31.3096 10.8921C31.3006 10.9191 30.9946 10.8291 30.9406 10.8201C29.5726 10.4421 26.1405 10.7424 26.1405 10.7424C23.7375 11.0574 22.2122 11.6137 21.2116 11.9811C21.1573 11.235 20.8719 10.6411 20.5454 10.0101Z" fill="black"/>
<path d="M20.3127 6.52641C20.4207 7.33641 20.3217 8.90241 19.3047 9.30742C18.4317 9.65842 17.4237 8.94741 16.9467 8.40741C16.2267 7.58841 15.8577 6.18441 16.5687 5.13141C16.9647 4.53741 17.7747 3.96141 18.6207 4.12341C19.9977 4.37541 20.2947 6.36441 20.3127 6.52641Z" fill="black"/>
<path d="M13.5317 31.9081C14.819 31.9081 15.8627 30.8645 15.8627 29.5771C15.8627 28.2897 14.819 27.2461 13.5317 27.2461C12.2443 27.2461 11.2007 28.2897 11.2007 29.5771C11.2007 30.8645 12.2443 31.9081 13.5317 31.9081Z" fill="#DC052D"/>
</g>
</g>
<defs>
<clipPath id="clip0_1158_24560">
<rect width="36" height="36" fill="white"/>
</clipPath>
</defs>
</svg>
