<svg width="86" height="70" viewBox="0 0 86 70" fill="none" xmlns="http://www.w3.org/2000/svg">
<g clip-path="url(#clip0_967_30672)">
<mask id="mask0_967_30672" style="mask-type:luminance" maskUnits="userSpaceOnUse" x="0" y="0" width="86" height="70">
<path d="M86 0H0V70H86V0Z" fill="white"/>
</mask>
<g mask="url(#mask0_967_30672)">
<path d="M4.68945 36.7305C4.68945 36.7305 26.7686 61.8255 28.2605 62.158C29.7523 62.4905 31.6127 62.543 30.9282 61.738C30.665 61.423 30.3139 61.493 29.9805 61.4405C29.4715 61.353 28.9625 61.2655 28.5588 61.2305C27.9095 61.178 23.2584 56.4705 23.2584 56.4705L4.68945 36.7305Z" fill="#DC052D"/>
<path d="M8.08984 28.9253C8.08984 28.9253 30.8184 27.9453 31.5029 27.9453C32.1874 27.9453 31.6082 29.0128 30.9588 29.3278C30.3094 29.6428 8.10739 28.9253 8.10739 28.9253H8.08984Z" fill="#DC052D"/>
<path d="M78.0137 20.403C78.2418 20.053 79.3826 19.6505 79.6108 20.403C79.839 21.1555 60.3047 39.1805 60.3047 39.1805C60.3047 39.1805 77.7855 20.753 78.0137 20.403Z" fill="#DC052D"/>
<path d="M34.2146 62.9829C34.2146 62.9829 71.8089 62.4229 72.704 62.1429C73.5991 61.8629 73.9501 61.7579 74.5117 61.4954C75.0733 61.2504 77.0742 60.9529 76.2493 61.7404C75.4419 62.5279 73.6342 62.8779 73.0199 62.9654C72.4056 63.0529 55.1529 62.8954 54.3631 62.8779C53.5558 62.8604 34.197 62.9654 34.197 62.9654L34.2146 62.9829Z" fill="#DC052D"/>
<path d="M58.0343 17.9154C58.6486 18.0204 59.6841 18.3004 60.2106 19.1229C62.8783 23.2879 53.5003 38.1638 38.2485 43.2388C34.6505 44.4463 24.4241 47.6304 13.1914 44.2529C14.2094 44.3754 15.7188 44.5154 17.5441 44.4979C28.1449 44.3929 37.2675 39.4404 41.1112 36.7279C47.3067 32.3529 51.3675 27.4202 53.3104 22.2554C49.8704 22.4829 44.2918 23.6029 38.7457 26.2279C35.7445 27.6454 33.3049 29.2904 31.4445 30.7604C32.7257 29.1679 37.3241 23.6554 43.5371 20.4529C47.2053 18.5629 50.733 17.8279 52.2073 17.6879C53.4183 17.5654 54.6294 17.5829 54.6294 17.5829C55.9808 17.6004 57.1392 17.7404 58.0343 17.8979V17.9154Z" fill="#E4E4E4"/>
<path d="M60.7568 18.2339C63.5123 17.8139 65.8817 17.6914 67.6895 17.6914C69.8307 17.6914 72.2879 17.6914 75.3944 18.4614C76.4123 18.7064 77.2548 18.9864 77.8515 19.1964C78.4483 19.4414 79.1854 19.7739 79.1679 19.8264C79.1679 19.8789 78.6062 19.7214 78.5185 19.6864C76.0964 19.0039 71.2172 19.7914 71.2172 19.7914C66.9348 20.4914 63.0911 21.6464 61.1781 22.2589C61.3185 21.8739 61.5466 21.1564 61.4413 20.2114C61.3536 19.2489 60.9674 18.5489 60.7568 18.2164V18.2339Z" fill="#E4E4E4"/>
<path d="M61.2686 10.4295C61.918 11.882 62.585 14.857 60.9001 16.1695C59.4609 17.307 57.1793 16.5195 56.0033 15.767C54.2131 14.6295 52.7564 12.197 53.4935 9.86946C53.9148 8.53946 55.1258 7.03446 56.7756 6.85946C59.496 6.57946 61.1282 10.132 61.2686 10.412V10.4295Z" fill="#E4E4E4"/>
<path d="M56.4606 44.0795C56.6888 45.3745 57.1275 47.9995 56.5659 51.3245C56.4957 51.797 56.4079 52.1645 56.3553 52.4095C55.4426 56.5745 53.4594 59.532 52.143 61.1595C52.652 59.147 53.6875 53.2495 53.6875 52.3395C53.6875 48.7695 52.5292 45.462 50.5635 42.7145C50.5635 42.7145 50.5459 42.7145 50.5459 42.697C50.1773 42.2245 49.7912 41.7345 49.37 41.227C48.9137 40.6845 48.4573 40.177 48.0186 39.7045C48.8259 39.1795 49.7386 38.5145 50.6863 37.657C51.6341 36.7995 52.3888 35.9595 52.9679 35.207C54.0386 36.922 55.7235 40.0545 56.4255 44.1145L56.4606 44.0795Z" fill="#E4E4E4"/>
</g>
</g>
<defs>
<clipPath id="clip0_967_30672">
<rect width="86" height="70" fill="white"/>
</clipPath>
</defs>
</svg>
