<svg width="36" height="36" viewBox="0 0 36 36" fill="none" xmlns="http://www.w3.org/2000/svg">
<g clip-path="url(#clip0_1158_21776)">
<mask id="mask0_1158_21776" style="mask-type:luminance" maskUnits="userSpaceOnUse" x="0" y="0" width="36" height="36">
<path d="M36 0H0V36H36V0Z" fill="white"/>
</mask>
<g mask="url(#mask0_1158_21776)">
<path d="M24.3666 34.1854L2.84766 12.4414V13.3864L18.6156 29.8384L24.3666 34.1854Z" fill="black"/>
<path d="M3.96582 12.1797C3.96582 12.1797 20.6248 29.0187 21.3178 29.5227C22.0108 30.0267 24.5039 30.2607 24.3599 30.5397C24.2159 30.8187 23.5589 31.1427 23.0549 31.1157C22.5509 31.0887 21.7499 30.7017 21.4619 30.5397C21.1739 30.3777 3.96582 12.1797 3.96582 12.1797Z" fill="#DC052D"/>
<path d="M30.9353 19.9154C30.5614 19.7151 30.4345 19.6548 29.7644 19.2204C28.6124 18.4734 28.2848 18.3095 27.7988 17.8505C26.9348 17.0405 26.2598 16.4105 26.0078 15.4115C25.6838 14.0885 25.7918 10.7855 25.7918 10.7855C25.7918 10.7855 25.7018 10.6055 25.6838 10.5875C25.1888 9.86749 22.6328 10.1915 22.6328 10.1915C20.9048 10.4255 20.0408 10.5335 19.9238 10.9295C19.6628 11.8295 22.5338 13.2965 23.4338 15.4385C23.5688 15.7625 23.6588 16.1135 23.5868 16.5185C23.5148 16.9685 23.2178 17.5805 21.3818 18.6875C20.4908 19.2275 19.5191 19.7993 18.6371 20.1953C17.3231 20.7983 15.2502 21.8346 14.4492 22.1946C15.4212 21.3126 17.1971 20.0304 17.7551 19.5894C17.7551 19.5894 18.7808 18.8495 19.9958 17.6795C20.5988 17.1035 20.9318 16.7435 20.9228 16.2665C20.9228 15.7715 20.5538 15.4025 20.3018 15.1685C18.8348 13.7465 17.4488 12.6935 17.4488 12.6935C15.0638 10.8845 14.9378 10.2725 14.9198 9.95748C14.8748 9.18349 15.3878 8.5805 15.4868 8.4635C15.4868 8.4635 16.2338 7.5905 19.8878 6.9785C19.8878 6.9785 19.9508 6.9695 19.9958 6.9605C20.0768 6.9425 20.0318 6.9605 20.0408 6.9605C20.1218 6.9425 20.3018 6.9155 20.3198 6.9155C21.8408 6.6995 23.6588 6.7805 23.6588 6.7805C27.0878 6.9155 27.6098 7.3835 27.8888 7.7345C27.9068 7.7615 27.9338 7.7975 27.9608 7.8335C28.6358 8.9495 28.3118 10.1825 28.0148 11.7035C27.6368 13.6385 27.4568 14.6015 27.6278 15.3305C27.8798 16.3655 28.4918 17.0585 29.5268 18.2375C30.7148 19.5965 31.0587 19.8254 30.9957 19.9154H30.9353Z" fill="black"/>
<path d="M29.021 8.97716C28.832 9.77817 28.787 11.3352 29.768 11.8392C30.605 12.2712 31.676 11.6592 32.198 11.1642C32.99 10.4172 33.494 9.04917 32.891 7.94217C32.549 7.31217 31.793 6.66417 30.947 6.74517C29.552 6.87117 29.066 8.81516 29.03 8.97716H29.021Z" fill="black"/>
<path d="M24.8104 14.9795C24.7114 14.9255 23.0554 13.0265 21.0304 10.6865C20.0674 9.57953 19.0144 8.3645 18.0154 7.2035C15.7024 4.5215 13.6324 2.1095 13.3804 1.8125C13.6594 2.1185 15.9544 4.6385 18.4924 7.2035C19.6804 8.4005 20.8414 9.65153 21.8764 10.7045C23.3974 12.2435 24.5674 13.6205 24.6574 13.7375C24.9364 14.0975 25.0534 15.1145 24.8104 14.9795Z" fill="#DC052D"/>
</g>
</g>
<defs>
<clipPath id="clip0_1158_21776">
<rect width="36" height="36" fill="white"/>
</clipPath>
</defs>
</svg>
