<svg width="22" height="22" viewBox="0 0 22 22" fill="none" xmlns="http://www.w3.org/2000/svg">
<path d="M11.8247 10.9991L18.0155 4.80223C18.1247 4.69247 18.186 4.5439 18.1858 4.38906C18.1857 4.23422 18.1243 4.08574 18.0149 3.97612C17.796 3.75832 17.4105 3.75723 17.1894 3.97723L11.0002 10.1741L4.80887 3.97557C4.58887 3.75832 4.20332 3.75942 3.98442 3.97667C3.93008 4.03079 3.88707 4.09519 3.85789 4.1661C3.82871 4.23702 3.81395 4.31304 3.81447 4.38973C3.81447 4.54593 3.87497 4.69222 3.98442 4.80058L10.1752 10.9985L3.98497 17.197C3.87573 17.307 3.81455 17.4557 3.81486 17.6107C3.81517 17.7657 3.87694 17.9142 3.98662 18.0237C4.09277 18.1287 4.24292 18.1892 4.39802 18.1892H4.40132C4.55697 18.1887 4.70712 18.1276 4.81107 18.0215L11.0002 11.8246L17.1916 18.0231C17.301 18.132 17.4473 18.1925 17.6024 18.1925C17.6791 18.1926 17.755 18.1776 17.8258 18.1483C17.8967 18.119 17.961 18.076 18.0152 18.0218C18.0694 17.9676 18.1124 17.9032 18.1417 17.8324C18.171 17.7615 18.186 17.6856 18.186 17.609C18.186 17.4533 18.1255 17.3065 18.0155 17.1981L11.8247 10.9991Z" fill="#FF4C4C"/>
</svg>
