<svg width="28" height="28" viewBox="0 0 28 28" fill="none" xmlns="http://www.w3.org/2000/svg">
<path d="M14.0017 10.0013C12.9408 10.0013 11.9234 10.4227 11.1732 11.1729C10.4231 11.923 10.0017 12.9404 10.0017 14.0013C10.0017 15.0622 10.4231 16.0796 11.1732 16.8297C11.9234 17.5799 12.9408 18.0013 14.0017 18.0013C15.0625 18.0013 16.0799 17.5799 16.8301 16.8297C17.5802 16.0796 18.0017 15.0622 18.0017 14.0013C18.0017 12.9404 17.5802 11.923 16.8301 11.1729C16.0799 10.4227 15.0625 10.0013 14.0017 10.0013ZM14.0017 7.33463C15.7698 7.33464 17.4655 8.03701 18.7157 9.28726C19.9659 10.5375 20.6683 12.2332 20.6683 14.0013C20.6683 15.7694 19.9659 17.4651 18.7157 18.7153C17.4655 19.9656 15.7698 20.668 14.0017 20.668C12.2335 20.668 10.5379 19.9656 9.28761 18.7153C8.03737 17.4651 7.33499 15.7694 7.33499 14.0013C7.33499 12.2332 8.03737 10.5375 9.28761 9.28726C10.5379 8.03701 12.2335 7.33464 14.0017 7.33463ZM22.6683 7.0013C22.6683 7.44333 22.4927 7.86725 22.1802 8.17981C21.8676 8.49237 21.4437 8.66797 21.0017 8.66797C20.5596 8.66797 20.1357 8.49237 19.8231 8.17981C19.5106 7.86725 19.335 7.44333 19.335 7.0013C19.335 6.55927 19.5106 6.13535 19.8231 5.82279C20.1357 5.51023 20.5596 5.33464 21.0017 5.33464C21.4437 5.33464 21.8676 5.51023 22.1802 5.82279C22.4927 6.13535 22.6683 6.55927 22.6683 7.0013ZM14.0017 3.33464C10.703 3.33464 10.1643 3.34397 8.62966 3.41197C7.58433 3.4613 6.88299 3.6013 6.23233 3.85464C5.6881 4.05513 5.19595 4.37548 4.79233 4.79197C4.37536 5.19546 4.05454 5.68762 3.85366 6.23197C3.60033 6.8853 3.46033 7.5853 3.41233 8.6293C3.34299 10.1013 3.33366 10.616 3.33366 14.0013C3.33366 17.3013 3.34299 17.8386 3.41099 19.3733C3.46033 20.4173 3.60033 21.12 3.85233 21.7693C4.07899 22.3493 4.34566 22.7666 4.78833 23.2093C5.23766 23.6573 5.65499 23.9253 6.22833 24.1466C6.88699 24.4013 7.58833 24.5426 8.62833 24.5906C10.1003 24.66 10.615 24.668 14.0003 24.668C17.3003 24.668 17.8377 24.6586 19.3723 24.5906C20.415 24.5413 21.1163 24.4013 21.7683 24.1493C22.3125 23.9488 22.8047 23.6285 23.2083 23.212C23.6577 22.764 23.9257 22.3466 24.147 21.772C24.4003 21.116 24.5417 20.4146 24.5897 19.372C24.659 17.9013 24.667 17.3853 24.667 14.0013C24.667 10.7026 24.6577 10.164 24.5897 8.6293C24.5403 7.58664 24.399 6.88263 24.147 6.23197C23.9465 5.68775 23.6261 5.1956 23.2097 4.79197C22.8062 4.375 22.314 4.05418 21.7697 3.8533C21.1163 3.59997 20.415 3.45997 19.3723 3.41197C17.9017 3.34264 17.387 3.33464 14.0003 3.33464M14.0003 0.667969C17.623 0.667969 18.075 0.681302 19.4977 0.747969C20.9163 0.814635 21.8843 1.0373 22.7337 1.36797C23.6137 1.70664 24.355 2.1653 25.0963 2.9053C25.7746 3.57161 26.2992 4.37793 26.6337 5.26797C26.963 6.1173 27.187 7.0853 27.2537 8.5053C27.3163 9.92663 27.3337 10.3786 27.3337 14.0013C27.3337 17.624 27.3203 18.076 27.2537 19.4973C27.187 20.9186 26.963 21.884 26.6337 22.7346C26.2992 23.6247 25.7746 24.431 25.0963 25.0973C24.43 25.7756 23.6237 26.3002 22.7337 26.6346C21.8843 26.964 20.9163 27.188 19.4977 27.2546C18.075 27.3173 17.623 27.3346 14.0003 27.3346C10.3777 27.3346 9.92566 27.3213 8.50299 27.2546C7.08432 27.188 6.11766 26.964 5.26699 26.6346C4.37695 26.3002 3.57064 25.7756 2.90433 25.0973C2.22607 24.431 1.70141 23.6247 1.36699 22.7346C1.03633 21.8853 0.813659 20.9173 0.746992 19.4973C0.682992 18.076 0.666992 17.624 0.666992 14.0013C0.666992 10.3786 0.680325 9.92663 0.746992 8.5053C0.813659 7.08397 1.03633 6.11863 1.36699 5.26797C1.70141 4.37793 2.22607 3.57161 2.90433 2.9053C3.57064 2.22704 4.37695 1.70239 5.26699 1.36797C6.11632 1.0373 7.08299 0.814635 8.50299 0.747969C9.92699 0.685302 10.379 0.667969 14.0017 0.667969" fill="#EEEEEE"/>
</svg>
