<svg width="60" height="51" viewBox="0 0 60 51" fill="none" xmlns="http://www.w3.org/2000/svg">
<g clip-path="url(#clip0_1158_22074)">
<path d="M53.4576 21.6415C55.3743 24.4529 56.8121 28.0206 56.8121 31.5296C56.8121 36.6025 55.1333 41.3273 52.0894 44.8348C48.6364 48.8108 43.5849 51 37.8621 51C31.503 51 27.4439 48.6331 24.9894 46.3023H5.89091L11.5015 24.8521H0L18.5712 0H34.4849L33.8015 3.07205H60.0015L53.4591 21.6415H53.4576Z" fill="black"/>
<path d="M58.6485 3.87025H32.6061L33.2894 0.99707H19.191L1.95459 23.8544H12.744L7.13489 45.303H25.1167C27.297 47.4606 31.2303 50.0023 37.6652 50.0023C43.2319 50.0023 47.9394 47.9638 51.2819 44.1128C54.2031 40.7515 55.8122 36.2104 55.8122 31.3304C55.8122 27.8274 54.3546 24.5128 52.3531 21.7421L58.647 3.87025H58.6485ZM55.4106 31.008C55.4122 31.1149 55.4152 31.2234 55.4152 31.3304C55.4152 36.1155 53.841 40.5646 50.9834 43.8521C47.7182 47.6142 43.1152 49.6045 37.6697 49.6045C31.3152 49.6045 27.4622 47.0809 25.3485 44.9625L25.2879 44.9053H7.6561L13.2652 23.4567H2.73186L19.3985 1.39483H32.791L32.1076 4.268H58.0728L51.9046 21.8009L51.9682 21.8867C53.897 24.5249 55.3213 27.6707 55.4091 31.0065L55.4106 31.008Z" fill="#B12B2C"/>
<path d="M29.2228 4.4873L22.697 36.7582L22.6152 37.1635H14.6531L14.7516 36.7582L20.3273 13.833H18.5622L16.2288 20.167H9.85913L21.0228 4.4873H29.2228Z" fill="white"/>
<path d="M51.2967 31.332C51.2967 38.6076 46.7573 45.3197 37.8618 45.3197C25.627 45.3197 24.427 34.282 24.9967 29.8901H33.6376C33.6376 31.332 34.0164 36.5374 38.1149 36.5374C40.3225 36.5374 43.0361 35.0323 43.0361 31.0186C43.0361 27.0049 40.3225 24.9348 37.4861 24.9348C34.6497 24.9348 32.9437 26.2501 31.7452 27.255H27.5209L31.6194 7.55859H53.2558L50.5422 14.7724H38.874L39.4422 11.0103H37.73L33.8467 21.5568C35.327 20.6438 37.3664 20.0412 40.1997 20.0412C47.2634 20.0412 51.2997 25.6866 51.2997 31.3305L51.2967 31.332Z" fill="white"/>
<path d="M13.5744 38.1562L13.2577 38.661C13.4138 38.8162 13.5805 38.9834 13.7365 39.1672H13.3835C13.2577 40.4313 12.6941 42.1459 12.0502 42.1459C11.7956 42.1459 11.732 41.504 11.732 41.1243C12.1774 40.8712 12.9395 39.9883 12.9395 38.7243H12.3032C12.2486 39.7066 11.5289 40.597 11.1729 40.8185L11.4789 38.7243H10.7789L10.1426 42.64H10.9047L11.0653 41.5507C11.1411 42.3161 11.3699 42.8931 11.8547 42.8931C12.3032 42.8931 12.7335 42.4909 12.9911 42.0344L12.8744 42.7681H13.5729C14.4638 42.4517 15.1395 41.6276 15.1395 40.7417C15.1395 39.3525 14.1456 38.5344 13.5729 38.1562H13.5744ZM13.6668 42.1037L14.0259 39.5514C14.2441 39.8889 14.3986 40.2791 14.3986 40.7462C14.3986 41.3368 13.9729 41.8671 13.6668 42.1037Z" fill="white"/>
<path d="M17.8942 38.6607C17.2063 38.6607 16.7275 39.4818 16.5593 40.3828C16.4245 40.5018 16.2624 40.6163 16.1139 40.7052L16.4351 38.724H15.673L15.0366 42.6397H15.7987L15.973 41.561C16.1881 41.4706 16.3563 41.3531 16.4927 41.2114C16.5215 42.019 16.8351 42.703 17.5139 42.703C19.0397 42.703 19.5472 38.6592 17.8942 38.6592V38.6607ZM17.576 41.9467C17.0048 41.9467 17.3215 39.4818 17.8306 39.4818C18.3397 39.4818 18.1472 41.9467 17.576 41.9467Z" fill="white"/>
<path d="M26.344 40.4932L26.2152 41.1892H24.947L25.0728 40.4932H26.344Z" fill="white"/>
<path d="M25.0108 38.7236L24.3744 42.6394H21.135L21.7699 38.7236H22.4683L21.9896 42.0096H22.4441L22.9774 38.7236H23.7396L23.2062 42.0096H23.7153L24.2471 38.7236H25.0108Z" fill="white"/>
<path d="M20.5864 39.6438C20.5909 39.4705 20.5258 39.3907 20.4243 39.3907C19.7864 39.3907 19.35 41.9806 19.9788 41.9806C20.2334 41.9806 20.4243 41.7275 20.553 41.6024L21.0606 41.9806C20.8697 42.2322 20.4894 42.6751 19.9182 42.6751C18.3303 42.6751 19.0273 38.6328 20.4894 38.6328C21.3152 38.6328 21.2879 39.6423 21.2879 39.6423L20.7803 40.5915L20.2712 40.2751L20.5879 39.6453L20.5864 39.6438Z" fill="white"/>
</g>
<defs>
<clipPath id="clip0_1158_22074">
<rect width="60" height="51" fill="white"/>
</clipPath>
</defs>
</svg>
