<svg width="29" height="10" viewBox="0 0 29 10" fill="none" xmlns="http://www.w3.org/2000/svg">
<path d="M0.4 10V0.199999H1.52V10H0.4ZM4.11383 10V2.72H5.16383L7.68383 7.564H7.82383L10.3438 2.72H11.3938V10H10.3578V4.918H10.2178L8.25783 8.74H7.24983L5.28983 4.932H5.14983V10H4.11383ZM12.9604 3.644L14.1924 0.199999H15.3264L13.8564 3.644H12.9604ZM16.294 10L18.044 7.074C17.176 6.752 16.602 6.024 16.602 5.086V4.876C16.602 3.602 17.596 2.72 18.996 2.72H22.034V10H20.998V7.242H19.094L17.47 10H16.294ZM18.926 6.262H20.998V3.7H18.926C18.198 3.7 17.694 4.176 17.694 4.904V5.058C17.694 5.758 18.226 6.262 18.926 6.262Z" fill="#EEEEEE"/>
<path d="M25.9426 5.394V3.91L26.0126 3.462L25.6346 3.756L24.3606 4.484L23.9266 3.728L25.2146 2.986L25.6486 2.818L25.2146 2.65L23.9266 1.908L24.3606 1.152L25.6346 1.894L26.0126 2.188L25.9426 1.726V0.242H26.8106V1.712L26.7406 2.188L27.1046 1.894L28.3926 1.152L28.8266 1.908L27.5526 2.636L27.1046 2.818L27.5526 3L28.8266 3.728L28.3926 4.484L27.1046 3.742L26.7406 3.448L26.8106 3.924V5.394H25.9426Z" fill="#FF4C4C"/>
</svg>
