<svg width="40" height="30" viewBox="0 0 40 30" fill="none" xmlns="http://www.w3.org/2000/svg">
<path d="M-0.0461426 15.8906C-0.0461426 15.8906 11.5069 28.7966 12.2875 28.9676C13.0681 29.1386 14.0416 29.1656 13.6834 28.7516C13.5457 28.5896 13.362 28.6256 13.1875 28.5986C12.9212 28.5536 12.6549 28.5086 12.4437 28.4906C12.1039 28.4636 9.67018 26.0426 9.67018 26.0426L-0.0461426 15.8906Z" fill="#DC052D"/>
<path d="M1.73315 11.877C1.73315 11.877 13.626 11.373 13.9842 11.373C14.3423 11.373 14.0393 11.922 13.6995 12.084C13.3597 12.246 1.74234 11.877 1.74234 11.877H1.73315Z" fill="#DC052D"/>
<path d="M38.321 7.49273C38.4404 7.31273 39.0373 7.10573 39.1567 7.49273C39.2761 7.87973 29.0547 17.1497 29.0547 17.1497C29.0547 17.1497 38.2016 7.67273 38.321 7.49273Z" fill="#DC052D"/>
<path d="M15.403 29.3895C15.403 29.3895 35.0744 29.1015 35.5428 28.9575C36.0111 28.8135 36.1948 28.7595 36.4887 28.6245C36.7826 28.4985 37.8295 28.3455 37.3979 28.7505C36.9754 29.1555 36.0295 29.3355 35.7081 29.3805C35.3867 29.4255 26.3591 29.3445 25.9458 29.3355C25.5234 29.3265 15.3938 29.3805 15.3938 29.3805L15.403 29.3895Z" fill="#DC052D"/>
<path d="M27.8664 6.21637C28.1878 6.27037 28.7296 6.41437 29.0052 6.83737C30.4011 8.97937 25.494 16.6298 17.5134 19.2398C15.6307 19.8608 10.2797 21.4984 4.4021 19.7614C4.93475 19.8244 5.72455 19.8964 6.67965 19.8874C12.2266 19.8334 17.0001 17.2864 19.0113 15.8914C22.2531 13.6414 24.378 11.1045 25.3946 8.44837C23.5946 8.56537 20.6756 9.14137 17.7735 10.4914C16.2031 11.2204 14.9266 12.0664 13.9531 12.8224C14.6235 12.0034 17.0296 9.16837 20.2807 7.52137C22.2001 6.54937 24.046 6.17137 24.8174 6.09937C25.4511 6.03637 26.0848 6.04537 26.0848 6.04537C26.7919 6.05437 27.398 6.12637 27.8664 6.20737V6.21637Z" fill="black"/>
<path d="M29.2915 6.37861C30.7333 6.16261 31.9731 6.09961 32.9191 6.09961C34.0395 6.09961 35.3252 6.09961 36.9507 6.49561C37.4833 6.62161 37.9242 6.76561 38.2364 6.87361C38.5486 6.99961 38.9344 7.17061 38.9252 7.19761C38.9252 7.22461 38.6313 7.14361 38.5854 7.12561C37.318 6.77461 34.765 7.17961 34.765 7.17961C32.5242 7.53961 30.5129 8.13361 29.5119 8.44861C29.5854 8.25061 29.7048 7.88161 29.6497 7.39561C29.6037 6.90061 29.4017 6.54061 29.2915 6.36961V6.37861Z" fill="black"/>
<path d="M29.5592 2.36361C29.899 3.11061 30.248 4.64061 29.3663 5.31561C28.6133 5.90061 27.4194 5.49561 26.8041 5.10861C25.8674 4.52361 25.1051 3.27261 25.4908 2.07561C25.7112 1.39161 26.3449 0.617609 27.2082 0.527609C28.6316 0.383609 29.4857 2.21061 29.5592 2.35461V2.36361Z" fill="black"/>
<path d="M27.0433 19.6704C27.1627 20.3364 27.3923 21.6864 27.0984 23.3964C27.0617 23.6394 27.0158 23.8284 26.9882 23.9544C26.5107 26.0964 25.4729 27.6174 24.7841 28.4544C25.0505 27.4194 25.5923 24.3864 25.5923 23.9184C25.5923 22.0824 24.9862 20.3814 23.9576 18.9684C23.9576 18.9684 23.9484 18.9684 23.9484 18.9594C23.7556 18.7164 23.5535 18.4644 23.3331 18.2034C23.0943 17.9244 22.8556 17.6634 22.626 17.4204C23.0484 17.1504 23.526 16.8084 24.0219 16.3674C24.5178 15.9264 24.9127 15.4944 25.2158 15.1074C25.776 15.9894 26.6576 17.6004 27.025 19.6884L27.0433 19.6704Z" fill="black"/>
</svg>
