<svg width="49" height="41" viewBox="0 0 49 41" fill="none" xmlns="http://www.w3.org/2000/svg">
<g clip-path="url(#clip0_1702_1731)">
<path d="M11.2586 31.9204L10.9705 33.9802C11.2161 33.7893 11.5578 33.3601 11.5578 32.8846C11.5578 32.5077 11.4337 32.1927 11.2586 31.9204ZM11.2586 31.9204L10.9705 33.9802C11.2161 33.7893 11.5578 33.3601 11.5578 32.8846C11.5578 32.5077 11.4337 32.1927 11.2586 31.9204ZM11.2586 31.9204L10.9705 33.9802C11.2161 33.7893 11.5578 33.3601 11.5578 32.8846C11.5578 32.5077 11.4337 32.1927 11.2586 31.9204ZM14.3119 31.8644C13.9034 31.8644 13.6492 33.8538 14.1077 33.8538C14.5661 33.8538 14.7193 31.8644 14.3119 31.8644ZM14.3119 31.8644C13.9034 31.8644 13.6492 33.8538 14.1077 33.8538C14.5661 33.8538 14.7193 31.8644 14.3119 31.8644ZM11.2586 31.9204L10.9705 33.9802C11.2161 33.7893 11.5578 33.3601 11.5578 32.8846C11.5578 32.5077 11.4337 32.1927 11.2586 31.9204ZM11.2586 31.9204L10.9705 33.9802C11.2161 33.7893 11.5578 33.3601 11.5578 32.8846C11.5578 32.5077 11.4337 32.1927 11.2586 31.9204ZM14.3119 31.8644C13.9034 31.8644 13.6492 33.8538 14.1077 33.8538C14.5661 33.8538 14.7193 31.8644 14.3119 31.8644ZM14.3119 31.8644C13.9034 31.8644 13.6492 33.8538 14.1077 33.8538C14.5661 33.8538 14.7193 31.8644 14.3119 31.8644ZM11.2586 31.9204L10.9705 33.9802C11.2161 33.7893 11.5578 33.3601 11.5578 32.8846C11.5578 32.5077 11.4337 32.1927 11.2586 31.9204ZM11.2586 31.9204L10.9705 33.9802C11.2161 33.7893 11.5578 33.3601 11.5578 32.8846C11.5578 32.5077 11.4337 32.1927 11.2586 31.9204ZM14.3119 31.8644C13.9034 31.8644 13.6492 33.8538 14.1077 33.8538C14.5661 33.8538 14.7193 31.8644 14.3119 31.8644ZM14.3119 31.8644C13.9034 31.8644 13.6492 33.8538 14.1077 33.8538C14.5661 33.8538 14.7193 31.8644 14.3119 31.8644ZM11.2586 31.9204L10.9705 33.9802C11.2161 33.7893 11.5578 33.3601 11.5578 32.8846C11.5578 32.5077 11.4337 32.1927 11.2586 31.9204ZM11.2586 31.9204L10.9705 33.9802C11.2161 33.7893 11.5578 33.3601 11.5578 32.8846C11.5578 32.5077 11.4337 32.1927 11.2586 31.9204ZM14.3119 31.8644C13.9034 31.8644 13.6492 33.8538 14.1077 33.8538C14.5661 33.8538 14.7193 31.8644 14.3119 31.8644ZM14.3119 31.8644C13.9034 31.8644 13.6492 33.8538 14.1077 33.8538C14.5661 33.8538 14.7193 31.8644 14.3119 31.8644ZM11.2586 31.9204L10.9705 33.9802C11.2161 33.7893 11.5578 33.3601 11.5578 32.8846C11.5578 32.5077 11.4337 32.1927 11.2586 31.9204ZM14.3119 31.8644C13.9034 31.8644 13.6492 33.8538 14.1077 33.8538C14.5661 33.8538 14.7193 31.8644 14.3119 31.8644ZM10.9717 33.9802C11.2173 33.7893 11.559 33.3601 11.559 32.8846C11.559 32.5077 11.435 32.1927 11.2599 31.9204L10.9717 33.9802ZM11.2599 31.9204L10.9717 33.9802C11.2173 33.7893 11.559 33.3601 11.559 32.8846C11.559 32.5077 11.435 32.1927 11.2599 31.9204ZM14.3132 31.8644C13.9046 31.8644 13.6505 33.8538 14.1089 33.8538C14.5673 33.8538 14.7205 31.8644 14.3132 31.8644ZM14.3132 31.8644C13.9046 31.8644 13.6505 33.8538 14.1089 33.8538C14.5673 33.8538 14.7205 31.8644 14.3132 31.8644ZM11.2599 31.9204L10.9717 33.9802C11.2173 33.7893 11.559 33.3601 11.559 32.8846C11.559 32.5077 11.435 32.1927 11.2599 31.9204ZM11.2599 31.9204L10.9717 33.9802C11.2173 33.7893 11.559 33.3601 11.559 32.8846C11.559 32.5077 11.435 32.1927 11.2599 31.9204ZM14.3132 31.8644C13.9046 31.8644 13.6505 33.8538 14.1089 33.8538C14.5673 33.8538 14.7205 31.8644 14.3132 31.8644ZM14.3132 31.8644C13.9046 31.8644 13.6505 33.8538 14.1089 33.8538C14.5673 33.8538 14.7205 31.8644 14.3132 31.8644ZM11.2599 31.9204L10.9717 33.9802C11.2173 33.7893 11.559 33.3601 11.559 32.8846C11.559 32.5077 11.435 32.1927 11.2599 31.9204ZM14.3132 31.8644C13.9046 31.8644 13.6505 33.8538 14.1089 33.8538C14.5673 33.8538 14.7205 31.8644 14.3132 31.8644ZM10.9729 33.9802C11.2185 33.7893 11.5602 33.3601 11.5602 32.8846C11.5602 32.5077 11.4362 32.1927 11.2611 31.9204L10.9729 33.9802ZM11.2611 31.9204L10.9729 33.9802C11.2185 33.7893 11.5602 33.3601 11.5602 32.8846C11.5602 32.5077 11.4362 32.1927 11.2611 31.9204ZM14.3144 31.8644C13.9058 31.8644 13.6517 33.8538 14.1101 33.8538C14.5685 33.8538 14.7217 31.8644 14.3144 31.8644ZM14.3144 31.8644C13.9058 31.8644 13.6517 33.8538 14.1101 33.8538C14.5685 33.8538 14.7217 31.8644 14.3144 31.8644ZM11.2611 31.9204L10.9729 33.9802C11.2185 33.7893 11.5602 33.3601 11.5602 32.8846C11.5602 32.5077 11.4362 32.1927 11.2611 31.9204ZM11.2611 31.9204L10.9729 33.9802C11.2185 33.7893 11.5602 33.3601 11.5602 32.8846C11.5602 32.5077 11.4362 32.1927 11.2611 31.9204ZM14.3144 31.8644C13.9058 31.8644 13.6517 33.8538 14.1101 33.8538C14.5685 33.8538 14.7217 31.8644 14.3144 31.8644ZM14.3144 31.8644C13.9058 31.8644 13.6517 33.8538 14.1101 33.8538C14.5685 33.8538 14.7217 31.8644 14.3144 31.8644ZM11.2611 31.9204L10.9729 33.9802C11.2185 33.7893 11.5602 33.3601 11.5602 32.8846C11.5602 32.5077 11.4362 32.1927 11.2611 31.9204ZM14.3144 31.8644C13.9058 31.8644 13.6517 33.8538 14.1101 33.8538C14.5685 33.8538 14.7217 31.8644 14.3144 31.8644ZM10.9741 33.9802C11.2197 33.7893 11.5614 33.3601 11.5614 32.8846C11.5614 32.5077 11.4374 32.1927 11.2623 31.9204L10.9741 33.9802ZM14.3144 31.8644C13.9058 31.8644 13.6517 33.8538 14.1101 33.8538C14.5685 33.8538 14.7217 31.8644 14.3144 31.8644ZM10.9741 33.9802C11.2197 33.7893 11.5614 33.3601 11.5614 32.8846C11.5614 32.5077 11.4374 32.1927 11.2623 31.9204L10.9741 33.9802ZM48.1523 2.47936H27.1258L27.6742 0H14.9029L0 20.0574H9.39092L4.88819 37.2086H20.055C22.0248 39.0897 25.2836 41 30.3858 41C34.9785 41 39.0326 39.2332 41.8038 36.0243C44.2466 33.1935 45.5939 29.3802 45.5939 25.286C45.5939 22.4541 44.44 19.7364 42.9018 17.4674L48.1523 2.48057V2.47936ZM44.9811 25.2678C44.9811 29.2075 43.6909 32.8713 41.3453 35.5841C38.6629 38.6933 34.8849 40.3373 30.4174 40.3373C25.2532 40.3373 22.0966 38.286 20.3468 36.5447H5.75518L10.2567 19.3947H1.27433L15.2689 0.626223H26.9057L26.3573 3.10558H47.2574L42.2062 17.5294C43.8125 19.7668 44.9823 22.4407 44.9823 25.2678H44.9811ZM14.3107 31.8644C13.9022 31.8644 13.648 33.8538 14.1064 33.8538C14.5649 33.8538 14.7181 31.8644 14.3107 31.8644ZM10.9705 33.9802C11.2161 33.7893 11.5578 33.3601 11.5578 32.8846C11.5578 32.5077 11.4337 32.1927 11.2586 31.9204L10.9705 33.9802ZM11.2586 31.9204L10.9705 33.9802C11.2161 33.7893 11.5578 33.3601 11.5578 32.8846C11.5578 32.5077 11.4337 32.1927 11.2586 31.9204ZM14.3119 31.8644C13.9034 31.8644 13.6492 33.8538 14.1077 33.8538C14.5661 33.8538 14.7193 31.8644 14.3119 31.8644ZM14.3119 31.8644C13.9034 31.8644 13.6492 33.8538 14.1077 33.8538C14.5661 33.8538 14.7193 31.8644 14.3119 31.8644ZM11.2586 31.9204L10.9705 33.9802C11.2161 33.7893 11.5578 33.3601 11.5578 32.8846C11.5578 32.5077 11.4337 32.1927 11.2586 31.9204ZM14.3119 31.8644C13.9034 31.8644 13.6492 33.8538 14.1077 33.8538C14.5661 33.8538 14.7193 31.8644 14.3119 31.8644ZM10.9717 33.9802C11.2173 33.7893 11.559 33.3601 11.559 32.8846C11.559 32.5077 11.435 32.1927 11.2599 31.9204L10.9717 33.9802ZM11.2599 31.9204L10.9717 33.9802C11.2173 33.7893 11.559 33.3601 11.559 32.8846C11.559 32.5077 11.435 32.1927 11.2599 31.9204ZM14.3132 31.8644C13.9046 31.8644 13.6505 33.8538 14.1089 33.8538C14.5673 33.8538 14.7205 31.8644 14.3132 31.8644ZM14.3132 31.8644C13.9046 31.8644 13.6505 33.8538 14.1089 33.8538C14.5673 33.8538 14.7205 31.8644 14.3132 31.8644ZM11.2599 31.9204L10.9717 33.9802C11.2173 33.7893 11.559 33.3601 11.559 32.8846C11.559 32.5077 11.435 32.1927 11.2599 31.9204ZM14.3132 31.8644C13.9046 31.8644 13.6505 33.8538 14.1089 33.8538C14.5673 33.8538 14.7205 31.8644 14.3132 31.8644ZM10.9729 33.9802C11.2185 33.7893 11.5602 33.3601 11.5602 32.8846C11.5602 32.5077 11.4362 32.1927 11.2611 31.9204L10.9729 33.9802ZM11.2611 31.9204L10.9729 33.9802C11.2185 33.7893 11.5602 33.3601 11.5602 32.8846C11.5602 32.5077 11.4362 32.1927 11.2611 31.9204ZM14.3144 31.8644C13.9058 31.8644 13.6517 33.8538 14.1101 33.8538C14.5685 33.8538 14.7217 31.8644 14.3144 31.8644ZM14.3144 31.8644C13.9058 31.8644 13.6517 33.8538 14.1101 33.8538C14.5685 33.8538 14.7217 31.8644 14.3144 31.8644ZM11.2611 31.9204L10.9729 33.9802C11.2185 33.7893 11.5602 33.3601 11.5602 32.8846C11.5602 32.5077 11.4362 32.1927 11.2611 31.9204ZM11.2611 31.9204L10.9729 33.9802C11.2185 33.7893 11.5602 33.3601 11.5602 32.8846C11.5602 32.5077 11.4362 32.1927 11.2611 31.9204ZM14.3144 31.8644C13.9058 31.8644 13.6517 33.8538 14.1101 33.8538C14.5685 33.8538 14.7217 31.8644 14.3144 31.8644ZM14.3144 31.8644C13.9058 31.8644 13.6517 33.8538 14.1101 33.8538C14.5685 33.8538 14.7217 31.8644 14.3144 31.8644ZM11.2611 31.9204L10.9729 33.9802C11.2185 33.7893 11.5602 33.3601 11.5602 32.8846C11.5602 32.5077 11.4362 32.1927 11.2611 31.9204ZM11.2611 31.9204L10.9729 33.9802C11.2185 33.7893 11.5602 33.3601 11.5602 32.8846C11.5602 32.5077 11.4362 32.1927 11.2611 31.9204ZM14.3144 31.8644C13.9058 31.8644 13.6517 33.8538 14.1101 33.8538C14.5685 33.8538 14.7217 31.8644 14.3144 31.8644ZM14.3144 31.8644C13.9058 31.8644 13.6517 33.8538 14.1101 33.8538C14.5685 33.8538 14.7217 31.8644 14.3144 31.8644ZM11.2611 31.9204L10.9729 33.9802C11.2185 33.7893 11.5602 33.3601 11.5602 32.8846C11.5602 32.5077 11.4362 32.1927 11.2611 31.9204ZM14.3144 31.8644C13.9058 31.8644 13.6517 33.8538 14.1101 33.8538C14.5685 33.8538 14.7217 31.8644 14.3144 31.8644ZM10.9741 33.9802C11.2197 33.7893 11.5614 33.3601 11.5614 32.8846C11.5614 32.5077 11.4374 32.1927 11.2623 31.9204L10.9741 33.9802ZM11.2623 31.9204L10.9741 33.9802C11.2197 33.7893 11.5614 33.3601 11.5614 32.8846C11.5614 32.5077 11.4374 32.1927 11.2623 31.9204ZM14.3156 31.8644C13.907 31.8644 13.6529 33.8538 14.1113 33.8538C14.5697 33.8538 14.7229 31.8644 14.3156 31.8644ZM14.3156 31.8644C13.907 31.8644 13.6529 33.8538 14.1113 33.8538C14.5697 33.8538 14.7229 31.8644 14.3156 31.8644ZM11.2623 31.9204L10.9741 33.9802C11.2197 33.7893 11.5614 33.3601 11.5614 32.8846C11.5614 32.5077 11.4374 32.1927 11.2623 31.9204ZM11.2623 31.9204L10.9741 33.9802C11.2197 33.7893 11.5614 33.3601 11.5614 32.8846C11.5614 32.5077 11.4374 32.1927 11.2623 31.9204ZM14.3156 31.8644C13.907 31.8644 13.6529 33.8538 14.1113 33.8538C14.5697 33.8538 14.7229 31.8644 14.3156 31.8644ZM14.3156 31.8644C13.907 31.8644 13.6529 33.8538 14.1113 33.8538C14.5697 33.8538 14.7229 31.8644 14.3156 31.8644ZM11.2623 31.9204L10.9741 33.9802C11.2197 33.7893 11.5614 33.3601 11.5614 32.8846C11.5614 32.5077 11.4374 32.1927 11.2623 31.9204ZM11.2623 31.9204L10.9741 33.9802C11.2197 33.7893 11.5614 33.3601 11.5614 32.8846C11.5614 32.5077 11.4374 32.1927 11.2623 31.9204ZM14.3156 31.8644C13.907 31.8644 13.6529 33.8538 14.1113 33.8538C14.5697 33.8538 14.7229 31.8644 14.3156 31.8644ZM14.3156 31.8644C13.907 31.8644 13.6529 33.8538 14.1113 33.8538C14.5697 33.8538 14.7229 31.8644 14.3156 31.8644ZM11.2623 31.9204L10.9741 33.9802C11.2197 33.7893 11.5614 33.3601 11.5614 32.8846C11.5614 32.5077 11.4374 32.1927 11.2623 31.9204ZM14.3156 31.8644C13.907 31.8644 13.6529 33.8538 14.1113 33.8538C14.5697 33.8538 14.7229 31.8644 14.3156 31.8644ZM10.9753 33.9802C11.221 33.7893 11.5626 33.3601 11.5626 32.8846C11.5626 32.5077 11.4386 32.1927 11.2635 31.9204L10.9753 33.9802ZM11.2635 31.9204L10.9753 33.9802C11.221 33.7893 11.5626 33.3601 11.5626 32.8846C11.5626 32.5077 11.4386 32.1927 11.2635 31.9204ZM14.3168 31.8644C13.9082 31.8644 13.6541 33.8538 14.1125 33.8538C14.5709 33.8538 14.7242 31.8644 14.3168 31.8644ZM14.3168 31.8644C13.9082 31.8644 13.6541 33.8538 14.1125 33.8538C14.5709 33.8538 14.7242 31.8644 14.3168 31.8644ZM11.2635 31.9204L10.9753 33.9802C11.221 33.7893 11.5626 33.3601 11.5626 32.8846C11.5626 32.5077 11.4386 32.1927 11.2635 31.9204ZM11.2635 31.9204L10.9753 33.9802C11.221 33.7893 11.5626 33.3601 11.5626 32.8846C11.5626 32.5077 11.4386 32.1927 11.2635 31.9204ZM14.3168 31.8644C13.9082 31.8644 13.6541 33.8538 14.1125 33.8538C14.5709 33.8538 14.7242 31.8644 14.3168 31.8644ZM14.3168 31.8644C13.9082 31.8644 13.6541 33.8538 14.1125 33.8538C14.5709 33.8538 14.7242 31.8644 14.3168 31.8644ZM11.2635 31.9204L10.9753 33.9802C11.221 33.7893 11.5626 33.3601 11.5626 32.8846C11.5626 32.5077 11.4386 32.1927 11.2635 31.9204ZM11.2635 31.9204L10.9753 33.9802C11.221 33.7893 11.5626 33.3601 11.5626 32.8846C11.5626 32.5077 11.4386 32.1927 11.2635 31.9204ZM14.3168 31.8644C13.9082 31.8644 13.6541 33.8538 14.1125 33.8538C14.5709 33.8538 14.7242 31.8644 14.3168 31.8644ZM14.3168 31.8644C13.9082 31.8644 13.6541 33.8538 14.1125 33.8538C14.5709 33.8538 14.7242 31.8644 14.3168 31.8644ZM11.2635 31.9204L10.9753 33.9802C11.221 33.7893 11.5626 33.3601 11.5626 32.8846C11.5626 32.5077 11.4386 32.1927 11.2635 31.9204ZM11.2635 31.9204L10.9753 33.9802C11.221 33.7893 11.5626 33.3601 11.5626 32.8846C11.5626 32.5077 11.4386 32.1927 11.2635 31.9204ZM11.2635 31.9204L10.9753 33.9802C11.221 33.7893 11.5626 33.3601 11.5626 32.8846C11.5626 32.5077 11.4386 32.1927 11.2635 31.9204Z" fill="#020A0A"/>
<path d="M41.8945 17.6471L41.8435 17.5778L46.7937 3.4276H25.9556L26.504 0.948242H15.4339L1.89648 19.0735H10.6721L6.17061 36.2235H20.4801L20.5288 36.2697C22.225 37.9781 25.3172 40.0161 30.417 40.0161C34.7872 40.0161 38.4825 38.4098 41.1017 35.3735C43.395 32.7203 44.6584 29.1295 44.6584 25.2676C44.6584 25.1813 44.6572 25.0937 44.6548 25.0074C44.5842 22.3152 43.4412 19.7763 41.8933 17.6471H41.8945ZM7.91309 16.2755L16.8723 3.62094H23.4519L18.216 29.6658L18.1503 29.9928H11.7604L11.8395 29.6658L16.3142 11.1624H14.8976L13.025 16.2743H7.91309V16.2755ZM10.8946 34.5162H10.3341L10.4277 33.9241C10.2198 34.2925 9.87567 34.6172 9.51574 34.6172C9.12663 34.6172 8.94302 34.1527 8.88222 33.5337L8.75333 34.4129H8.1417L8.6524 31.2526H9.21418L8.96855 32.9428C9.25552 32.764 9.83311 32.0466 9.87567 31.2526H10.3864C10.3864 32.2728 9.77474 32.9853 9.41725 33.1896C9.41725 33.4948 9.46832 34.0141 9.6726 34.0141C10.1894 34.0141 10.6417 32.6303 10.7427 31.6101H11.026C10.9007 31.4617 10.767 31.3268 10.6417 31.2015L10.8959 30.7942C11.3543 31.0994 12.1532 31.7597 12.1532 32.8808C12.1532 33.5958 11.6109 34.2597 10.8959 34.5162H10.8946ZM14.0549 34.4652C13.5114 34.4652 13.2585 33.9131 13.2354 33.2614C13.1259 33.3757 12.991 33.4705 12.8183 33.5435L12.6785 34.4141H12.0668L12.5775 31.2538H13.1892L12.9314 32.8528C13.0506 32.7798 13.1807 32.6887 13.2889 32.5926C13.4239 31.8654 13.8081 31.2027 14.3602 31.2027C15.6856 31.2027 15.2794 34.4664 14.0549 34.4664V34.4652ZM15.9847 34.4409C14.7104 34.4409 15.2697 31.1784 16.4431 31.1784C17.1058 31.1784 17.0839 31.9931 17.0839 31.9931L16.6766 32.7592L16.268 32.5038L16.5221 31.9955C16.5258 31.8557 16.4735 31.7913 16.392 31.7913C15.8801 31.7913 15.5299 33.8815 16.0345 33.8815C16.2388 33.8815 16.392 33.6772 16.4942 33.5763L16.9015 33.8815C16.7483 34.0846 16.4431 34.4421 15.9847 34.4421V34.4409ZM16.9611 34.4141L17.4718 31.2538H18.0324L17.6481 33.9058H18.0129L18.4409 31.2538H19.0526L18.6246 33.9058H19.0331L19.4599 31.2538H20.0728L19.5621 34.4141H16.9611ZM21.0395 33.2431H20.0205L20.1214 32.6814H21.1416L21.0382 33.2431H21.0395ZM30.3878 36.5761C20.5689 36.5761 19.6058 27.6679 20.063 24.1234H26.9977C26.9977 25.2871 27.3017 29.4882 30.5909 29.4882C32.3626 29.4882 34.5404 28.2735 34.5404 25.0341C34.5404 21.7948 32.3626 20.1241 30.0863 20.1241C27.81 20.1241 26.4408 21.1856 25.479 21.9966H22.0888L25.378 6.1003H42.7421L40.5643 11.9224H31.2001L31.6561 8.88608H30.282L27.1655 17.3979C28.3535 16.661 29.9902 16.1746 32.2641 16.1746C37.9329 16.1746 41.1722 20.7308 41.1722 25.2858C41.1722 31.1577 37.5292 36.5749 30.3903 36.5749L30.3878 36.5761Z" fill="#020A0A"/>
</g>
<defs>
<clipPath id="clip0_1702_1731">
<rect width="48.1523" height="41" fill="white"/>
</clipPath>
</defs>
</svg>
